0
SECTION
2
HEADER
9
$INSUNITS
70
4
9
$ACADVER
1
AC1014
9
$HANDSEED
5
FFFF
0
ENDSEC
0
SECTION
2
TABLES
0
TABLE
2
VPORT
5
8
100
AcDbSymbolTable
0
ENDTAB
0
TABLE
2
LTYPE
5
5
100
AcDbSymbolTable
0
LTYPE
5
14
100
AcDbSymbolTableRecord
100
AcDbLinetypeTableRecord
2
BYBLOCK
70
0
0
LTYPE
5
15
100
AcDbSymbolTableRecord
100
AcDbLinetypeTableRecord
2
BYLAYER
70
0
0
LTYPE
5
16
100
AcDbSymbolTableRecord
100
AcDbLinetypeTableRecord
2
DASHED
70
0
3
Dashed __ __ __ __ __ __ __ __ __ __ __ __ __ _
72
65
73
2
40
0.75
49
0.5
74
0
49
-0.25
74
0
0
ENDTAB
0
TABLE
2
LAYER
5
2
100
AcDbSymbolTable
70
3
0
LAYER
5
50
100
AcDbSymbolTableRecord
100
AcDbLayerTableRecord
2
1
70
0
62
7
6
DASHED
0
LAYER
5
51
100
AcDbSymbolTableRecord
100
AcDbLayerTableRecord
2
0
70
0
62
7
6
CONTINUOUS
0
ENDTAB
0
TABLE
2
STYLE
5
3
100
AcDbSymbolTable
70
1
0
STYLE
5
11
100
AcDbSymbolTableRecord
100
AcDbTextStyleTableRecord
2
STANDARD
70
0
0
ENDTAB
0
TABLE
2
VIEW
5
6
100
AcDbSymbolTable
70
0
0
ENDTAB
0
TABLE
2
UCS
5
7
100
AcDbSymbolTable
70
0
0
ENDTAB
0
TABLE
2
APPID
5
9
100
AcDbSymbolTable
70
2
0
APPID
5
12
100
AcDbSymbolTableRecord
100
AcDbRegAppTableRecord
2
ACAD
70
0
0
ENDTAB
0
TABLE
2
DIMSTYLE
5
A
100
AcDbSymbolTable
70
1
0
ENDTAB
0
TABLE
2
BLOCK_RECORD
5
1
100
AcDbSymbolTable
70
1
0
BLOCK_RECORD
5
1F
100
AcDbSymbolTableRecord
100
AcDbBlockTableRecord
2
*MODEL_SPACE
0
BLOCK_RECORD
5
1B
100
AcDbSymbolTableRecord
100
AcDbBlockTableRecord
2
*PAPER_SPACE
0
ENDTAB
0
ENDSEC
0
SECTION
2
BLOCKS
0
BLOCK
5
20
100
AcDbEntity
100
AcDbBlockBegin
2
*MODEL_SPACE
0
ENDBLK
5
21
100
AcDbEntity
100
AcDbBlockEnd
0
BLOCK
5
1C
100
AcDbEntity
100
AcDbBlockBegin
2
*PAPER_SPACE
0
ENDBLK
5
1D
100
AcDbEntity
100
AcDbBlockEnd
0
ENDSEC
0
SECTION
2
ENTITIES
0
CIRCLE
5
100
100
AcDbEntity
8
0
100
AcDbCircle
10
-29.599999999999977
20
-4.7996449411846171e-46
30
0
40
1.6000000000000014
210
0
220
0
230
1
0
CIRCLE
5
101
100
AcDbEntity
8
0
100
AcDbCircle
10
29.599999999999969
20
-4.7996449411846171e-46
30
0
40
1.6000000000000014
210
0
220
0
230
1
0
LWPOLYLINE
5
102
100
AcDbEntity
8
0
100
AcDbPolyline
90
8
70
1
43
0.0
10
21.100000000000023
20
-37.699999999999932
42
0.4142135623730937
10
23.100000000000023
20
-35.699999999999932
10
23.100000000000023
20
35.699999999999946
42
0.41421356237309509
10
21.100000000000023
20
37.699999999999953
10
-21.099999999999959
20
37.699999999999989
42
0.41421356237309509
10
-23.099999999999959
20
35.699999999999989
10
-23.099999999999966
20
-35.699999999999967
42
0.41421356237309109
10
-21.099999999999959
20
-37.699999999999974
0
LWPOLYLINE
5
103
100
AcDbEntity
8
0
100
AcDbPolyline
90
40
70
1
43
0.0
10
30.754563879341099
20
-53.892307692307639
42
0.2043018768846718
10
31.4761663039293
20
-54.199999999999932
10
37.599999999999952
20
-54.199999999999932
42
0.41421356237309764
10
39.599999999999945
20
-52.199999999999918
10
39.599999999999952
20
52.199999999999932
42
0.41421356237309825
10
37.599999999999952
20
54.199999999999946
10
31.4761663039293
20
54.199999999999946
42
0.20430187688468271
10
30.754563879341106
20
53.892307692307668
42
-0.42640143271120551
10
28.445436120658858
20
53.892307692307654
42
0.20430187688468021
10
27.723833696070646
20
54.199999999999946
10
18.659999999998508
20
54.19999999999996
42
0.41421356237309509
10
17.659999999998494
20
53.199999999999946
10
17.659999999998497
20
52.071149307047442
42
-0.41421356237309509
10
16.659999999998504
20
51.071149307047449
10
-16.65999999999848
20
51.071149307047449
42
-0.41421356237309509
10
-17.659999999998483
20
52.071149307047442
10
-17.659999999998483
20
53.199999999999967
42
0.41421356237309243
10
-18.65999999999849
20
54.19999999999996
10
-27.723833696070631
20
54.199999999999982
42
0.20430187688466567
10
-28.445436120658833
20
53.892307692307668
42
-0.42640143271121017
10
-30.754563879341109
20
53.892307692307675
42
0.20430187688468238
10
-31.476166303929332
20
54.199999999999982
10
-37.599999999999966
20
54.199999999999982
42
0.41421356237309243
10
-39.599999999999959
20
52.199999999999989
10
-39.599999999999966
20
-52.199999999999974
42
0.41421356237309437
10
-37.599999999999966
20
-54.199999999999974
10
-31.476166303929332
20
-54.19999999999996
42
0.20430187688467835
10
-30.754563879341109
20
-53.892307692307654
42
-0.42640143271121306
10
-28.445436120658833
20
-53.892307692307654
42
0.20430187688467066
10
-27.723833696070631
20
-54.199999999999946
10
-18.65999999999849
20
-54.199999999999946
42
0.41421356237309637
10
-17.65999999999849
20
-53.199999999999946
10
-17.659999999998476
20
-52.071149307047421
42
-0.41421356237309509
10
-16.65999999999848
20
-51.071149307047428
10
16.659999999998504
20
-51.071149307047428
42
-0.41421356237309509
10
17.659999999998504
20
-52.071149307047421
10
17.659999999998504
20
-53.199999999999932
42
0.41421356237309509
10
18.659999999998508
20
-54.199999999999939
10
27.723833696070646
20
-54.199999999999932
42
0.2043018768846718
10
28.445436120658854
20
-53.892307692307647
42
-0.42640143271120434
0
ENDSEC
0
SECTION
2
OBJECTS
0
DICTIONARY
5
C
100
AcDbDictionary
3
ACAD_GROUP
350
D
3
ACAD_MLINESTYLE
350
17
0
DICTIONARY
5
D
100
AcDbDictionary
0
DICTIONARY
5
1A
330
C
100
AcDbDictionary
0
DICTIONARY
5
17
100
AcDbDictionary
0
ENDSEC
0
EOF
