0
SECTION
2
HEADER
9
$INSUNITS
70
4
9
$ACADVER
1
AC1014
9
$HANDSEED
5
FFFF
0
ENDSEC
0
SECTION
2
TABLES
0
TABLE
2
VPORT
5
8
100
AcDbSymbolTable
0
ENDTAB
0
TABLE
2
LTYPE
5
5
100
AcDbSymbolTable
70
3
0
LTYPE
5
14
100
AcDbSymbolTableRecord
100
AcDbLinetypeTableRecord
2
BYBLOCK
70
0
0
LTYPE
5
15
100
AcDbSymbolTableRecord
100
AcDbLinetypeTableRecord
2
BYLAYER
70
0
0
LTYPE
5
16
100
AcDbSymbolTableRecord
100
AcDbLinetypeTableRecord
2
DASHED
70
0
3
Dashed __ __ __ __ __ __ __ __ __ __ __ __ __ _
72
65
73
2
40
0.75
49
0.5
74
0
49
-0.25
74
0
0
ENDTAB
0
TABLE
2
LAYER
5
2
100
AcDbSymbolTable
70
3
0
LAYER
5
50
100
AcDbSymbolTableRecord
100
AcDbLayerTableRecord
2
0
70
0
6
CONTINUOUS
0
LAYER
5
51
100
AcDbSymbolTableRecord
100
AcDbLayerTableRecord
2
CUTOUTS
70
0
62
1
6
CONTINUOUS
0
LAYER
5
52
100
AcDbSymbolTableRecord
100
AcDbLayerTableRecord
2
PERIMETER
70
0
62
5
6
CONTINUOUS
0
ENDTAB
0
TABLE
2
STYLE
5
3
100
AcDbSymbolTable
70
1
0
STYLE
5
11
100
AcDbSymbolTableRecord
100
AcDbTextStyleTableRecord
2
STANDARD
70
0
0
ENDTAB
0
TABLE
2
VIEW
5
6
100
AcDbSymbolTable
0
ENDTAB
0
TABLE
2
UCS
5
7
100
AcDbSymbolTable
0
ENDTAB
0
TABLE
2
APPID
5
9
100
AcDbSymbolTable
70
1
0
APPID
5
12
100
AcDbSymbolTableRecord
100
AcDbRegAppTableRecord
2
ACAD
70
0
0
ENDTAB
0
TABLE
2
DIMSTYLE
5
A
100
AcDbSymbolTable
0
ENDTAB
0
TABLE
2
BLOCK_RECORD
5
1
100
AcDbSymbolTable
70
2
0
BLOCK_RECORD
5
1F
100
AcDbSymbolTableRecord
100
AcDbBlockTableRecord
2
*MODEL_SPACE
0
BLOCK_RECORD
5
1B
100
AcDbSymbolTableRecord
100
AcDbBlockTableRecord
2
*PAPER_SPACE
0
ENDTAB
0
ENDSEC
0
SECTION
2
BLOCKS
0
BLOCK
5
20
100
AcDbEntity
100
AcDbBlockBegin
2
*MODEL_SPACE
0
ENDBLK
5
21
100
AcDbEntity
100
AcDbBlockEnd
0
BLOCK
5
1C
100
AcDbEntity
100
AcDbBlockBegin
2
*PAPER_SPACE
0
ENDBLK
5
1D
100
AcDbEntity
100
AcDbBlockEnd
0
ENDSEC
0
SECTION
2
ENTITIES
0
CIRCLE
5
100
100
AcDbEntity
8
CUTOUTS
100
AcDbCircle
10
29.599999999999952
20
-110
30
8.8817841970012523e-15
40
1.6000000000000014
210
0
220
0
230
1
0
CIRCLE
5
101
100
AcDbEntity
8
CUTOUTS
100
AcDbCircle
10
-29.599999999999994
20
110
30
-8.8817841970012523e-15
40
1.6000000000000014
210
0
220
0
230
1
0
CIRCLE
5
102
100
AcDbEntity
8
CUTOUTS
100
AcDbCircle
10
-29.599999999999994
20
-110
30
-8.8817841970012523e-15
40
1.6000000000000014
210
0
220
0
230
1
0
CIRCLE
5
103
100
AcDbEntity
8
CUTOUTS
100
AcDbCircle
10
29.599999999999952
20
110
30
8.8817841970012523e-15
40
1.6000000000000014
210
0
220
0
230
1
0
CIRCLE
5
104
100
AcDbEntity
8
CUTOUTS
100
AcDbCircle
10
-29.599999999999977
20
-4.7996449411846171e-46
30
0
40
1.6000000000000014
210
0
220
0
230
1
0
CIRCLE
5
105
100
AcDbEntity
8
CUTOUTS
100
AcDbCircle
10
29.599999999999969
20
-4.7996449411846171e-46
30
0
40
1.6000000000000014
210
0
220
0
230
1
0
CIRCLE
5
106
100
AcDbEntity
8
CUTOUTS
100
AcDbCircle
10
29.599999999999969
20
-55
30
0
40
1.6000000000000014
210
0
220
0
230
1
0
CIRCLE
5
107
100
AcDbEntity
8
CUTOUTS
100
AcDbCircle
10
-29.599999999999977
20
-55
30
0
40
1.6000000000000014
210
0
220
0
230
1
0
CIRCLE
5
108
100
AcDbEntity
8
CUTOUTS
100
AcDbCircle
10
-29.599999999999977
20
55
30
0
40
1.6000000000000014
210
0
220
0
230
1
0
CIRCLE
5
109
100
AcDbEntity
8
CUTOUTS
100
AcDbCircle
10
29.599999999999969
20
55
30
0
40
1.6000000000000014
210
0
220
0
230
1
0
LWPOLYLINE
5
10A
100
AcDbEntity
8
CUTOUTS
100
AcDbPolyline
90
8
70
1
43
0.0
10
-23.099999999999973
20
-145.69999999999999
42
0.41421356237309509
10
-21.099999999999966
20
-147.70000000000002
10
21.100000000000012
20
-147.69999999999996
42
0.41421356237309509
10
23.100000000000005
20
-145.69999999999996
10
23.100000000000016
20
145.69999999999996
42
0.41421356237309509
10
21.100000000000012
20
147.69999999999996
10
-21.099999999999966
20
147.69999999999999
42
0.41421356237309509
10
-23.099999999999959
20
145.69999999999999
0
LWPOLYLINE
5
10B
100
AcDbEntity
8
PERIMETER
100
AcDbPolyline
90
40
70
1
43
0.0
10
39.59999999999993
20
-162.19999999999993
10
39.599999999999945
20
162.19999999999993
42
0.41421356237310869
10
37.599999999999937
20
164.19999999999999
10
31.47616630392929
20
164.19999999999993
42
0.2043018768846743
10
30.754563879341106
20
163.89230769230764
42
-0.42640143271120906
10
28.44543612065884
20
163.89230769230767
42
0.20430187688465523
10
27.723833696070635
20
164.19999999999999
10
18.659999999998501
20
164.19999999999999
42
0.41421356237307427
10
17.659999999998487
20
163.19999999999996
10
17.659999999998508
20
162.07114930704745
42
-0.41421356237309509
10
16.659999999998494
20
161.07114930704742
10
-16.65999999999849
20
161.07114930704742
42
-0.41421356237309509
10
-17.65999999999849
20
162.07114930704745
10
-17.659999999998494
20
163.19999999999996
42
0.41421356237307427
10
-18.659999999998501
20
164.19999999999999
10
-27.723833696070642
20
164.19999999999999
42
0.20430187688468085
10
-28.445436120658858
20
163.89230769230764
42
-0.42640143271120734
10
-30.75456387934112
20
163.89230769230767
42
0.20430187688464929
10
-31.47616630392934
20
164.20000000000002
10
-37.599999999999973
20
164.19999999999999
42
0.4142135623730957
10
-39.599999999999973
20
162.19999999999999
10
-39.599999999999973
20
-162.19999999999999
42
0.41421356237309437
10
-37.599999999999973
20
-164.19999999999999
10
-31.47616630392934
20
-164.19999999999999
42
0.20430187688467932
10
-30.754563879341124
20
-163.89230769230767
42
-0.42640143271121478
10
-28.44543612065884
20
-163.89230769230767
42
0.20430187688467058
10
-27.723833696070642
20
-164.19999999999993
10
-18.659999999998501
20
-164.19999999999999
42
0.41421356237309637
10
-17.659999999998483
20
-163.19999999999996
10
-17.659999999998504
20
-162.07114930704745
42
-0.41421356237307427
10
-16.65999999999849
20
-161.07114930704742
10
16.659999999998494
20
-161.07114930704742
42
-0.41421356237307427
10
17.659999999998494
20
-162.07114930704745
10
17.659999999998497
20
-163.19999999999996
42
0.41421356237309509
10
18.659999999998501
20
-164.19999999999999
10
27.723833696070635
20
-164.19999999999993
42
0.204301876884667
10
28.445436120658819
20
-163.89230769230767
42
-0.42640143271120667
10
30.754563879341077
20
-163.89230769230764
42
0.20430187688468007
10
31.47616630392929
20
-164.19999999999993
10
37.599999999999937
20
-164.19999999999993
42
0.4142135623731002
0
ENDSEC
0
SECTION
2
OBJECTS
0
DICTIONARY
5
C
100
AcDbDictionary
3
ACAD_GROUP
350
D
3
ACAD_MLINESTYLE
350
17
0
DICTIONARY
5
D
100
AcDbDictionary
0
DICTIONARY
5
1A
330
C
100
AcDbDictionary
0
DICTIONARY
5
17
100
AcDbDictionary
0
ENDSEC
0
EOF
