0
SECTION
2
HEADER
9
$INSUNITS
70
4
9
$ACADVER
1
AC1014
9
$HANDSEED
5
FFFF
0
ENDSEC
0
SECTION
2
TABLES
0
TABLE
2
VPORT
5
8
100
AcDbSymbolTable
0
ENDTAB
0
TABLE
2
LTYPE
5
5
100
AcDbSymbolTable
0
LTYPE
5
14
100
AcDbSymbolTableRecord
100
AcDbLinetypeTableRecord
2
BYBLOCK
70
0
0
LTYPE
5
15
100
AcDbSymbolTableRecord
100
AcDbLinetypeTableRecord
2
BYLAYER
70
0
0
ENDTAB
0
TABLE
2
LAYER
5
2
100
AcDbSymbolTable
70
2
0
LAYER
5
50
100
AcDbSymbolTableRecord
100
AcDbLayerTableRecord
2
0
70
0
6
CONTINUOUS
0
ENDTAB
0
TABLE
2
STYLE
5
3
100
AcDbSymbolTable
70
1
0
STYLE
5
11
100
AcDbSymbolTableRecord
100
AcDbTextStyleTableRecord
2
STANDARD
70
0
0
ENDTAB
0
TABLE
2
VIEW
5
6
100
AcDbSymbolTable
70
0
0
ENDTAB
0
TABLE
2
UCS
5
7
100
AcDbSymbolTable
70
0
0
ENDTAB
0
TABLE
2
APPID
5
9
100
AcDbSymbolTable
70
2
0
APPID
5
12
100
AcDbSymbolTableRecord
100
AcDbRegAppTableRecord
2
ACAD
70
0
0
ENDTAB
0
TABLE
2
DIMSTYLE
5
A
100
AcDbSymbolTable
70
1
0
ENDTAB
0
TABLE
2
BLOCK_RECORD
5
1
100
AcDbSymbolTable
70
1
0
BLOCK_RECORD
5
1F
100
AcDbSymbolTableRecord
100
AcDbBlockTableRecord
2
*MODEL_SPACE
0
BLOCK_RECORD
5
1B
100
AcDbSymbolTableRecord
100
AcDbBlockTableRecord
2
*PAPER_SPACE
0
ENDTAB
0
ENDSEC
0
SECTION
2
BLOCKS
0
BLOCK
5
20
100
AcDbEntity
100
AcDbBlockBegin
2
*MODEL_SPACE
0
ENDBLK
5
21
100
AcDbEntity
100
AcDbBlockEnd
0
BLOCK
5
1C
100
AcDbEntity
100
AcDbBlockBegin
2
*PAPER_SPACE
0
ENDBLK
5
1D
100
AcDbEntity
100
AcDbBlockEnd
0
ENDSEC
0
SECTION
2
ENTITIES
0
CIRCLE
5
100
100
AcDbEntity
8
0
100
AcDbCircle
10
9.9999999999999485
20
8.8817841970012507e-15
30
0
40
3.5000000000000031
210
0
220
0
230
1
0
CIRCLE
5
101
100
AcDbEntity
8
0
100
AcDbCircle
10
-30.000000000000053
20
8.8817841970012507e-15
30
1.7763568394002505e-14
40
3.5000000000000009
210
0
220
0
230
1
0
CIRCLE
5
102
100
AcDbEntity
8
0
100
AcDbCircle
10
-10.00000000000005
20
8.8817841970012507e-15
30
8.8817841970012523e-15
40
3.5000000000000009
210
0
220
0
230
1
0
CIRCLE
5
103
100
AcDbEntity
8
0
100
AcDbCircle
10
29.999999999999947
20
8.8817841970012507e-15
30
-8.8817841970012523e-15
40
3.5000000000000009
210
0
220
0
230
1
0
LWPOLYLINE
5
104
100
AcDbEntity
8
0
100
AcDbPolyline
90
40
70
1
43
0.0
10
-31.900000000000261
20
-5.8000000000000052
42
0.41421356237309509
10
-32.900000000000261
20
-4.8000000000000043
10
-33.349999999999845
20
-4.7999999999999972
42
-0.41421356237309387
10
-34.349999999999838
20
-3.8000000000000038
10
-34.349999999999845
20
3.7999999999999963
42
-0.41421356237309243
10
-33.349999999999845
20
4.7999999999999963
10
33.349999999999994
20
4.7999999999999972
42
-0.41421356237309387
10
34.349999999999994
20
3.8000000000000038
10
34.349999999999994
20
-3.7999999999999963
42
-0.4142135623730947
10
33.349999999999994
20
-4.7999999999999963
10
32.900000000000247
20
-4.7999999999999954
42
0.4142135623730947
10
31.900000000000244
20
-5.7999999999999936
10
31.900000000000244
20
-11.074999999999996
42
-0.41421356237309176
10
30.900000000000244
20
-12.074999999999996
10
30.175000000000253
20
-12.074999999999996
10
30.175000000000253
20
-9.5749999999999975
10
29.665000000000255
20
-9.5749999999999975
10
29.665000000000255
20
-12.074999999999996
10
27.635000000000261
20
-12.074999999999996
10
27.635000000000261
20
-9.5749999999999975
10
27.125000000000263
20
-9.5749999999999975
10
27.125000000000263
20
-12.074999999999998
10
26.400000000000237
20
-12.074999999999992
42
-0.41421356237309109
10
25.400000000000244
20
-11.074999999999996
10
25.400000000000247
20
-5.7999999999999989
42
0.41421356237309537
10
24.400000000000247
20
-4.7999999999999972
10
-24.400000000000265
20
-4.8000000000000034
42
0.41421356237309509
10
-25.400000000000269
20
-5.8000000000000025
10
-25.400000000000269
20
-11.075000000000001
42
-0.41421356237309176
10
-26.400000000000269
20
-12.075000000000003
10
-27.125000000000284
20
-12.075000000000005
10
-27.125000000000284
20
-9.5750000000000028
10
-27.635000000000286
20
-9.5750000000000028
10
-27.635000000000286
20
-12.075000000000005
10
-29.66500000000028
20
-12.075000000000005
10
-29.66500000000028
20
-9.5750000000000028
10
-30.175000000000281
20
-9.5750000000000028
10
-30.175000000000281
20
-12.075000000000005
10
-30.900000000000265
20
-12.075000000000003
42
-0.41421356237309048
10
-31.900000000000261
20
-11.075000000000003
0
ENDSEC
0
SECTION
2
OBJECTS
0
DICTIONARY
5
C
100
AcDbDictionary
3
ACAD_GROUP
350
D
3
ACAD_MLINESTYLE
350
17
0
DICTIONARY
5
D
100
AcDbDictionary
0
DICTIONARY
5
1A
330
C
100
AcDbDictionary
0
DICTIONARY
5
17
100
AcDbDictionary
0
ENDSEC
0
EOF
