0
SECTION
2
HEADER
9
$INSUNITS
70
4
9
$ACADVER
1
AC1014
9
$HANDSEED
5
FFFF
0
ENDSEC
0
SECTION
2
TABLES
0
TABLE
2
VPORT
5
8
100
AcDbSymbolTable
0
ENDTAB
0
TABLE
2
LTYPE
5
5
100
AcDbSymbolTable
0
LTYPE
5
14
100
AcDbSymbolTableRecord
100
AcDbLinetypeTableRecord
2
BYBLOCK
70
0
0
LTYPE
5
15
100
AcDbSymbolTableRecord
100
AcDbLinetypeTableRecord
2
BYLAYER
70
0
0
LTYPE
5
16
100
AcDbSymbolTableRecord
100
AcDbLinetypeTableRecord
2
DASHED
70
0
3
Dashed __ __ __ __ __ __ __ __ __ __ __ __ __ _
72
65
73
2
40
0.75
49
0.5
74
0
49
-0.25
74
0
0
ENDTAB
0
TABLE
2
LAYER
5
2
100
AcDbSymbolTable
70
3
0
LAYER
5
50
100
AcDbSymbolTableRecord
100
AcDbLayerTableRecord
2
1
70
0
62
7
6
DASHED
0
LAYER
5
51
100
AcDbSymbolTableRecord
100
AcDbLayerTableRecord
2
0
70
0
62
7
6
CONTINUOUS
0
ENDTAB
0
TABLE
2
STYLE
5
3
100
AcDbSymbolTable
70
1
0
STYLE
5
11
100
AcDbSymbolTableRecord
100
AcDbTextStyleTableRecord
2
STANDARD
70
0
0
ENDTAB
0
TABLE
2
VIEW
5
6
100
AcDbSymbolTable
70
0
0
ENDTAB
0
TABLE
2
UCS
5
7
100
AcDbSymbolTable
70
0
0
ENDTAB
0
TABLE
2
APPID
5
9
100
AcDbSymbolTable
70
2
0
APPID
5
12
100
AcDbSymbolTableRecord
100
AcDbRegAppTableRecord
2
ACAD
70
0
0
ENDTAB
0
TABLE
2
DIMSTYLE
5
A
100
AcDbSymbolTable
70
1
0
ENDTAB
0
TABLE
2
BLOCK_RECORD
5
1
100
AcDbSymbolTable
70
1
0
BLOCK_RECORD
5
1F
100
AcDbSymbolTableRecord
100
AcDbBlockTableRecord
2
*MODEL_SPACE
0
BLOCK_RECORD
5
1B
100
AcDbSymbolTableRecord
100
AcDbBlockTableRecord
2
*PAPER_SPACE
0
ENDTAB
0
ENDSEC
0
SECTION
2
BLOCKS
0
BLOCK
5
20
100
AcDbEntity
100
AcDbBlockBegin
2
*MODEL_SPACE
0
ENDBLK
5
21
100
AcDbEntity
100
AcDbBlockEnd
0
BLOCK
5
1C
100
AcDbEntity
100
AcDbBlockBegin
2
*PAPER_SPACE
0
ENDBLK
5
1D
100
AcDbEntity
100
AcDbBlockEnd
0
ENDSEC
0
SECTION
2
ENTITIES
0
LWPOLYLINE
5
100
100
AcDbEntity
8
0
100
AcDbPolyline
90
32
70
1
43
0.0
10
33.535751202445738
20
-31.33287803354872
42
0.34543029620376803
10
34.148511050084807
20
-31.258866209670838
10
41.914213562373099
20
-23.493163697382542
42
0.19891236737965881
10
42.500000000000007
20
-22.07895013500945
10
42.500000000000014
20
22.078950135009443
42
0.19891236737965265
10
41.914213562373106
20
23.493163697382535
10
34.143307230042026
20
31.264070029713615
42
0.34543029620376464
10
33.530547382402965
20
31.3380818535915
42
-0.78446454055273662
10
31.332878033548724
20
33.535751202445738
42
0.3454302962037602
10
31.258866209670849
20
34.148511050084799
10
23.493163697382542
20
41.914213562373099
42
0.19891236737965881
10
22.07895013500945
20
42.500000000000007
10
-22.07895013500945
20
42.500000000000014
42
0.19891236737965842
10
-23.493163697382556
20
41.914213562373099
10
-31.264070029713615
20
34.143307230042026
42
0.34543029620376464
10
-31.3380818535915
20
33.530547382402965
42
-0.78446454055273707
10
-33.535751202445738
20
31.332878033548731
42
0.34543029620375892
10
-34.148511050084799
20
31.258866209670849
10
-41.914213562373106
20
23.493163697382535
42
0.19891236737966503
10
-42.500000000000007
20
22.078950135009435
10
-42.500000000000014
20
-22.078950135009446
42
0.19891236737965784
10
-41.914213562373099
20
-23.493163697382546
10
-34.143307230042026
20
-31.264070029713615
42
0.34543029620376475
10
-33.530547382402965
20
-31.338081853591504
42
-0.78446454055273318
10
-31.332878033548724
20
-33.535751202445738
42
0.34543029620375715
10
-31.258866209670849
20
-34.148511050084799
10
-23.493163697382538
20
-41.914213562373099
42
0.19891236737966164
10
-22.078950135009446
20
-42.500000000000007
10
22.078950135009453
20
-42.500000000000014
42
0.19891236737965784
10
23.493163697382556
20
-41.914213562373099
10
31.264070029713618
20
-34.143307230042026
42
0.34543029620376464
10
31.3380818535915
20
-33.530547382402972
42
-0.78446454055273573
0
CIRCLE
5
101
100
AcDbEntity
8
0
100
AcDbCircle
10
10.000000000000009
20
38
30
0
40
0.5500000000000016
210
0
220
-0
230
1
0
CIRCLE
5
102
100
AcDbEntity
8
0
100
AcDbCircle
10
-9.9999999999999911
20
38.000000000000007
30
0
40
0.80000000000000071
210
0
220
-0
230
1
0
LWPOLYLINE
5
103
100
AcDbEntity
8
0
100
AcDbPolyline
90
4
70
1
43
0.0
10
-11.199999999999992
20
-37.000000000000014
42
0.99999999999999989
10
-11.200000000000001
20
-39.000000000000014
10
11.20000000000001
20
-39
42
0.99999999999999989
10
11.200000000000006
20
-37
0
ENDSEC
0
SECTION
2
OBJECTS
0
DICTIONARY
5
C
100
AcDbDictionary
3
ACAD_GROUP
350
D
3
ACAD_MLINESTYLE
350
17
0
DICTIONARY
5
D
100
AcDbDictionary
0
DICTIONARY
5
1A
330
C
100
AcDbDictionary
0
DICTIONARY
5
17
100
AcDbDictionary
0
ENDSEC
0
EOF
