0
SECTION
2
HEADER
9
$INSUNITS
70
4
9
$ACADVER
1
AC1014
9
$HANDSEED
5
FFFF
0
ENDSEC
0
SECTION
2
TABLES
0
TABLE
2
VPORT
5
8
100
AcDbSymbolTable
0
ENDTAB
0
TABLE
2
LTYPE
5
5
100
AcDbSymbolTable
0
LTYPE
5
14
100
AcDbSymbolTableRecord
100
AcDbLinetypeTableRecord
2
BYBLOCK
70
0
0
LTYPE
5
15
100
AcDbSymbolTableRecord
100
AcDbLinetypeTableRecord
2
BYLAYER
70
0
0
ENDTAB
0
TABLE
2
LAYER
5
2
100
AcDbSymbolTable
70
2
0
LAYER
5
50
100
AcDbSymbolTableRecord
100
AcDbLayerTableRecord
2
0
70
0
6
CONTINUOUS
0
ENDTAB
0
TABLE
2
STYLE
5
3
100
AcDbSymbolTable
70
1
0
STYLE
5
11
100
AcDbSymbolTableRecord
100
AcDbTextStyleTableRecord
2
STANDARD
70
0
0
ENDTAB
0
TABLE
2
VIEW
5
6
100
AcDbSymbolTable
70
0
0
ENDTAB
0
TABLE
2
UCS
5
7
100
AcDbSymbolTable
70
0
0
ENDTAB
0
TABLE
2
APPID
5
9
100
AcDbSymbolTable
70
2
0
APPID
5
12
100
AcDbSymbolTableRecord
100
AcDbRegAppTableRecord
2
ACAD
70
0
0
ENDTAB
0
TABLE
2
DIMSTYLE
5
A
100
AcDbSymbolTable
70
1
0
ENDTAB
0
TABLE
2
BLOCK_RECORD
5
1
100
AcDbSymbolTable
70
1
0
BLOCK_RECORD
5
1F
100
AcDbSymbolTableRecord
100
AcDbBlockTableRecord
2
*MODEL_SPACE
0
BLOCK_RECORD
5
1B
100
AcDbSymbolTableRecord
100
AcDbBlockTableRecord
2
*PAPER_SPACE
0
ENDTAB
0
ENDSEC
0
SECTION
2
BLOCKS
0
BLOCK
5
20
100
AcDbEntity
100
AcDbBlockBegin
2
*MODEL_SPACE
0
ENDBLK
5
21
100
AcDbEntity
100
AcDbBlockEnd
0
BLOCK
5
1C
100
AcDbEntity
100
AcDbBlockBegin
2
*PAPER_SPACE
0
ENDBLK
5
1D
100
AcDbEntity
100
AcDbBlockEnd
0
ENDSEC
0
SECTION
2
ENTITIES
0
CIRCLE
5
100
100
AcDbEntity
8
0
100
AcDbCircle
10
8.890000000000013
20
-9.4750000000000014
30
0
40
0.35000000000000031
210
0
220
0
230
1
0
CIRCLE
5
101
100
AcDbEntity
8
0
100
AcDbCircle
10
11.430000000000014
20
-9.4750000000000014
30
0
40
0.3499999999999992
210
0
220
0
230
1
0
CIRCLE
5
102
100
AcDbEntity
8
0
100
AcDbCircle
10
8.890000000000013
20
-29.475000000000001
30
0
40
0.35000000000000031
210
0
220
0
230
1
0
CIRCLE
5
103
100
AcDbEntity
8
0
100
AcDbCircle
10
3.8100000000000129
20
-9.4750000000000014
30
0
40
0.35000000000000031
210
0
220
0
230
1
0
CIRCLE
5
104
100
AcDbEntity
8
0
100
AcDbCircle
10
6.3500000000000121
20
-9.4750000000000014
30
0
40
0.35000000000000031
210
0
220
0
230
1
0
CIRCLE
5
105
100
AcDbEntity
8
0
100
AcDbCircle
10
3.8100000000000129
20
-29.475000000000001
30
0
40
0.35000000000000031
210
0
220
0
230
1
0
CIRCLE
5
106
100
AcDbEntity
8
0
100
AcDbCircle
10
-3.8099999999999872
20
-9.4750000000000014
30
0
40
0.35000000000000031
210
0
220
0
230
1
0
CIRCLE
5
107
100
AcDbEntity
8
0
100
AcDbCircle
10
-1.2699999999999871
20
-9.4750000000000014
30
0
40
0.35000000000000003
210
0
220
0
230
1
0
CIRCLE
5
108
100
AcDbEntity
8
0
100
AcDbCircle
10
1.2700000000000129
20
-29.475000000000001
30
0
40
0.35000000000000003
210
0
220
0
230
1
0
CIRCLE
5
109
100
AcDbEntity
8
0
100
AcDbCircle
10
1.2700000000000129
20
-9.4750000000000014
30
0
40
0.35000000000000003
210
0
220
0
230
1
0
CIRCLE
5
110
100
AcDbEntity
8
0
100
AcDbCircle
10
13.970000000000013
20
-19.475000000000001
30
0
40
0.3499999999999992
210
0
220
0
230
1
0
CIRCLE
5
111
100
AcDbEntity
8
0
100
AcDbCircle
10
-6.3499999999999881
20
-9.4750000000000014
30
0
40
0.35000000000000031
210
0
220
0
230
1
0
CIRCLE
5
112
100
AcDbEntity
8
0
100
AcDbCircle
10
6.3500000000000121
20
-19.475000000000001
30
0
40
0.35000000000000031
210
0
220
0
230
1
0
CIRCLE
5
113
100
AcDbEntity
8
0
100
AcDbCircle
10
-11.429999999999987
20
-9.4750000000000014
30
0
40
0.3499999999999992
210
0
220
0
230
1
0
CIRCLE
5
114
100
AcDbEntity
8
0
100
AcDbCircle
10
-8.8899999999999881
20
-19.475000000000001
30
0
40
0.35000000000000031
210
0
220
0
230
1
0
CIRCLE
5
115
100
AcDbEntity
8
0
100
AcDbCircle
10
-13.969999999999986
20
-9.4750000000000014
30
0
40
0.3499999999999992
210
0
220
0
230
1
0
CIRCLE
5
116
100
AcDbEntity
8
0
100
AcDbCircle
10
-8.8899999999999881
20
-9.4750000000000014
30
0
40
0.35000000000000031
210
0
220
0
230
1
0
CIRCLE
5
117
100
AcDbEntity
8
0
100
AcDbCircle
10
16.510000000000012
20
-19.475000000000001
30
0
40
0.3499999999999992
210
0
220
0
230
1
0
CIRCLE
5
118
100
AcDbEntity
8
0
100
AcDbCircle
10
-16.509999999999987
20
-9.4750000000000014
30
0
40
0.3499999999999992
210
0
220
0
230
1
0
CIRCLE
5
119
100
AcDbEntity
8
0
100
AcDbCircle
10
-1.2699999999999871
20
-19.475000000000001
30
0
40
0.35000000000000003
210
0
220
0
230
1
0
CIRCLE
5
120
100
AcDbEntity
8
0
100
AcDbCircle
10
3.8100000000000129
20
-19.475000000000001
30
0
40
0.35000000000000031
210
0
220
0
230
1
0
CIRCLE
5
121
100
AcDbEntity
8
0
100
AcDbCircle
10
-6.3499999999999881
20
-19.475000000000001
30
0
40
0.35000000000000031
210
0
220
0
230
1
0
CIRCLE
5
122
100
AcDbEntity
8
0
100
AcDbCircle
10
1.2700000000000129
20
-19.475000000000001
30
0
40
0.35000000000000003
210
0
220
0
230
1
0
CIRCLE
5
123
100
AcDbEntity
8
0
100
AcDbCircle
10
8.890000000000013
20
-19.475000000000001
30
0
40
0.35000000000000031
210
0
220
0
230
1
0
CIRCLE
5
124
100
AcDbEntity
8
0
100
AcDbCircle
10
-3.8099999999999872
20
-19.475000000000001
30
0
40
0.35000000000000031
210
0
220
0
230
1
0
CIRCLE
5
125
100
AcDbEntity
8
0
100
AcDbCircle
10
11.430000000000014
20
-19.475000000000001
30
0
40
0.3499999999999992
210
0
220
0
230
1
0
CIRCLE
5
126
100
AcDbEntity
8
0
100
AcDbCircle
10
-3.8099999999999872
20
-29.475000000000001
30
0
40
0.35000000000000031
210
0
220
0
230
1
0
CIRCLE
5
127
100
AcDbEntity
8
0
100
AcDbCircle
10
-13.969999999999986
20
-19.475000000000001
30
0
40
0.3499999999999992
210
0
220
0
230
1
0
CIRCLE
5
128
100
AcDbEntity
8
0
100
AcDbCircle
10
-11.429999999999987
20
-19.475000000000001
30
0
40
0.3499999999999992
210
0
220
0
230
1
0
CIRCLE
5
129
100
AcDbEntity
8
0
100
AcDbCircle
10
-16.509999999999987
20
-19.475000000000001
30
0
40
0.3499999999999992
210
0
220
0
230
1
0
CIRCLE
5
130
100
AcDbEntity
8
0
100
AcDbCircle
10
-13.969999999999986
20
-29.475000000000001
30
0
40
0.3499999999999992
210
0
220
0
230
1
0
CIRCLE
5
131
100
AcDbEntity
8
0
100
AcDbCircle
10
-11.429999999999987
20
-29.475000000000001
30
0
40
0.3499999999999992
210
0
220
0
230
1
0
CIRCLE
5
132
100
AcDbEntity
8
0
100
AcDbCircle
10
6.3500000000000121
20
-29.475000000000001
30
0
40
0.35000000000000031
210
0
220
0
230
1
0
CIRCLE
5
133
100
AcDbEntity
8
0
100
AcDbCircle
10
16.510000000000012
20
-29.475000000000001
30
0
40
0.3499999999999992
210
0
220
0
230
1
0
CIRCLE
5
134
100
AcDbEntity
8
0
100
AcDbCircle
10
-8.8899999999999881
20
-29.475000000000001
30
0
40
0.35000000000000031
210
0
220
0
230
1
0
CIRCLE
5
135
100
AcDbEntity
8
0
100
AcDbCircle
10
-16.509999999999987
20
-29.475000000000001
30
0
40
0.3499999999999992
210
0
220
0
230
1
0
CIRCLE
5
136
100
AcDbEntity
8
0
100
AcDbCircle
10
-6.3499999999999881
20
-29.475000000000001
30
0
40
0.35000000000000031
210
0
220
0
230
1
0
CIRCLE
5
137
100
AcDbEntity
8
0
100
AcDbCircle
10
-1.2699999999999871
20
-29.475000000000001
30
0
40
0.35000000000000003
210
0
220
0
230
1
0
CIRCLE
5
138
100
AcDbEntity
8
0
100
AcDbCircle
10
13.970000000000013
20
-29.475000000000001
30
0
40
0.3499999999999992
210
0
220
0
230
1
0
CIRCLE
5
139
100
AcDbEntity
8
0
100
AcDbCircle
10
16.510000000000012
20
-9.4750000000000014
30
0
40
0.3499999999999992
210
0
220
0
230
1
0
CIRCLE
5
140
100
AcDbEntity
8
0
100
AcDbCircle
10
13.970000000000013
20
-9.4750000000000014
30
0
40
0.3499999999999992
210
0
220
0
230
1
0
CIRCLE
5
141
100
AcDbEntity
8
0
100
AcDbCircle
10
11.430000000000014
20
-29.475000000000001
30
0
40
0.3499999999999992
210
0
220
0
230
1
0
CIRCLE
5
142
100
AcDbEntity
8
0
100
AcDbCircle
10
32
20
-39.800000000000004
30
-8.8817841970012523e-15
40
1.4999999999999991
210
0
220
0
230
1
0
CIRCLE
5
143
100
AcDbEntity
8
0
100
AcDbCircle
10
-32
20
-39.800000000000004
30
8.8817841970012523e-15
40
1.4999999999999991
210
0
220
0
230
1
0
CIRCLE
5
144
100
AcDbEntity
8
0
100
AcDbCircle
10
-32
20
-15.199999999999996
30
8.8817841970012523e-15
40
1.4999999999999991
210
0
220
0
230
1
0
CIRCLE
5
145
100
AcDbEntity
8
0
100
AcDbCircle
10
32
20
-15.199999999999996
30
-8.8817841970012523e-15
40
1.4999999999999991
210
0
220
0
230
1
0
LINE
5
146
100
AcDbEntity
8
0
100
AcDbLine
10
17.259999999999945
20
-51.959999999999852
30
0
11
17.259999999999948
21
-53.933333333333337
31
0
0
LINE
5
147
100
AcDbEntity
8
0
100
AcDbLine
10
17.259999999999948
20
-53.933333333333337
30
0
11
18.109999999999982
21
-53.933333333333337
31
0
0
ELLIPSE
5
148
100
AcDbEntity
8
0
100
AcDbEllipse
10
18.109999999999982
20
-54.200000000000003
30
0
11
-0.80000000000000071
21
0
31
0.0
40
0.33333333333333309
41
3.6660698772883857
42
4.7123889803846897
0
ARC
5
149
100
AcDbEntity
8
0
100
AcDbCircle
10
19.301708496606999
20
-53.200000000000067
30
0
40
0.99999999999993106
210
-1.7044717281517791e-32
220
-2.9582238336460936e-32
230
1
100
AcDbArc
50
240.05028036704235
51
270.0000000000008
0
LINE
5
150
100
AcDbEntity
8
0
100
AcDbLine
10
19.301708496607013
20
-54.200000000000003
30
0
11
27.825176065070067
21
-54.200000000000003
31
0
0
ARC
5
151
100
AcDbEntity
8
0
100
AcDbCircle
10
27.825176065070075
20
-53.699999999999989
30
0
40
0.50000000000000711
210
0
220
0
230
1
100
AcDbArc
50
269.9999999999992
51
323.77845338016454
0
ARC
5
152
100
AcDbEntity
8
0
100
AcDbCircle
10
29.599999999999966
20
-55.000000000000007
30
0
40
1.7000000000000051
210
0
220
-0
230
1
100
AcDbArc
50
36.221546619835415
51
143.77845338016465
0
ARC
5
153
100
AcDbEntity
8
0
100
AcDbCircle
10
31.374823934929843
20
-53.700000000000017
30
0
40
0.49999999999998412
210
1.4567033761182929e-32
220
-1.9887630907908152e-32
230
1
100
AcDbArc
50
216.22154661983356
51
270.0000000000004
0
LINE
5
154
100
AcDbEntity
8
0
100
AcDbLine
10
31.374823934929847
20
-54.20000000000001
30
-9.9438154539538285e-33
11
37.599999999999966
21
-54.200000000000003
31
0
0
ARC
5
155
100
AcDbEntity
8
0
100
AcDbCircle
10
37.599999999999966
20
-52.199999999999989
30
0
40
2.0000000000000107
210
-0
220
0
230
1
100
AcDbArc
50
270
51
360
0
LINE
5
156
100
AcDbEntity
8
0
100
AcDbLine
10
39.599999999999973
20
-52.200000000000017
30
0
11
39.599999999999966
21
-2.8000000000000025
31
0
0
ARC
5
157
100
AcDbEntity
8
0
100
AcDbCircle
10
37.599999999999966
20
-2.8000000000000025
30
0
40
2.0000000000000018
210
0
220
-0
230
1
100
AcDbArc
50
0
51
90
0
LINE
5
158
100
AcDbEntity
8
0
100
AcDbLine
10
37.599999999999966
20
-0.80000000000000071
30
0
11
31.374823934929847
21
-0.80000000000000016
31
0
0
ARC
5
159
100
AcDbEntity
8
0
100
AcDbCircle
10
31.374823934929847
20
-1.3
30
0
40
0.49999999999999989
210
-4.9303806576313238e-32
220
0
230
1
100
AcDbArc
50
90
51
143.77845338016482
0
ARC
5
160
100
AcDbEntity
8
0
100
AcDbCircle
10
29.599999999999966
20
0
30
0
40
1.6999999999999988
210
-1.456703376118346e-32
220
1.9887630907907769e-32
230
1
100
AcDbArc
50
216.22154661983504
51
323.77845338016488
0
ARC
5
161
100
AcDbEntity
8
0
100
AcDbCircle
10
27.825176065070082
20
-1.2999999999999985
30
0
40
0.499999999999999
210
1.2421215002336569e-47
220
9.0981303470394215e-48
230
1
100
AcDbArc
50
36.221546619835088
51
90
0
LINE
5
162
100
AcDbEntity
8
0
100
AcDbLine
10
27.825176065070082
20
-0.7999999999999996
30
0
11
19.30170849660702
21
-0.80000000000000016
31
0
0
ARC
5
163
100
AcDbEntity
8
0
100
AcDbCircle
10
19.301708496607016
20
-1.7999999999999958
30
0
40
0.99999999999999556
210
0
220
-0
230
1
100
AcDbArc
50
89.999999999999801
51
119.94971963295725
0
ELLIPSE
5
164
100
AcDbEntity
8
0
100
AcDbEllipse
10
18.109999999999982
20
-0.80000000000000071
30
0
11
-0.80000000000000071
21
0
31
0.0
40
0.33333333333333309
41
1.5707963267948966
42
2.6171154298911778
0
LINE
5
165
100
AcDbEntity
8
0
100
AcDbLine
10
18.109999999999982
20
-1.0666666666666673
30
2.4151899563784914e-48
11
16.815000000000012
21
-1.0666666666666667
31
0
0
LINE
5
166
100
AcDbEntity
8
0
100
AcDbLine
10
16.815000000000012
20
-1.0666666666666667
30
0
11
16.815000000000023
21
-2.0700000000000007
31
0
0
ARC
5
167
100
AcDbEntity
8
0
100
AcDbCircle
10
16.510000000000023
20
-2.0700000000000003
30
0
40
0.30499999999999972
210
4.9303806576313238e-32
220
-4.4867394477613296e-47
230
1
100
AcDbArc
50
180
51
360
0
LINE
5
168
100
AcDbEntity
8
0
100
AcDbLine
10
16.205000000000023
20
-2.0700000000000003
30
1.5037661005775524e-32
11
16.205000000000005
21
-0.80000000000000016
31
0
0
LINE
5
169
100
AcDbEntity
8
0
100
AcDbLine
10
16.205000000000005
20
-0.80000000000000016
30
0
11
14.275000000000011
21
-0.80000000000000016
31
0
0
LINE
5
170
100
AcDbEntity
8
0
100
AcDbLine
10
14.275000000000011
20
-0.80000000000000016
30
0
11
14.275000000000009
21
-3.0700000000000003
31
0
0
ARC
5
171
100
AcDbEntity
8
0
100
AcDbCircle
10
13.970000000000006
20
-3.069999999999995
30
0
40
0.30500000000000194
210
0
220
0
230
1
100
AcDbArc
50
180
51
360
0
LINE
5
172
100
AcDbEntity
8
0
100
AcDbLine
10
13.665000000000004
20
-3.0699999999999896
30
0
11
13.665000000000006
21
-0.80000000000000016
31
0
0
LINE
5
173
100
AcDbEntity
8
0
100
AcDbLine
10
13.665000000000006
20
-0.80000000000000016
30
0
11
11.73500000000001
21
-0.80000000000000016
31
0
0
LINE
5
174
100
AcDbEntity
8
0
100
AcDbLine
10
11.73500000000001
20
-0.80000000000000016
30
0
11
11.735000000000023
21
-2.0700000000000007
31
0
0
ARC
5
175
100
AcDbEntity
8
0
100
AcDbCircle
10
11.430000000000023
20
-2.0700000000000003
30
0
40
0.30499999999999972
210
4.9303806576313238e-32
220
-4.4867394477613296e-47
230
1
100
AcDbArc
50
180
51
360
0
LINE
5
176
100
AcDbEntity
8
0
100
AcDbLine
10
11.125000000000023
20
-2.0700000000000003
30
1.5037661005775524e-32
11
11.125000000000007
21
-0.80000000000000016
31
0
0
LINE
5
177
100
AcDbEntity
8
0
100
AcDbLine
10
11.125000000000007
20
-0.80000000000000016
30
0
11
9.1950000000000092
21
-0.80000000000000016
31
0
0
LINE
5
178
100
AcDbEntity
8
0
100
AcDbLine
10
9.1950000000000092
20
-0.80000000000000016
30
0
11
9.1950000000000074
21
-3.0700000000000003
31
0
0
ARC
5
179
100
AcDbEntity
8
0
100
AcDbCircle
10
8.8900000000000077
20
-3.069999999999995
30
0
40
0.30500000000000083
210
1.2623373311496426e-59
220
7.0064923216240854e-46
230
1
100
AcDbArc
50
180
51
360
0
LINE
5
180
100
AcDbEntity
8
0
100
AcDbLine
10
8.5850000000000062
20
-3.0699999999999896
30
-3.9255688656793154e-62
11
8.5850000000000062
21
-0.80000000000000016
31
0
0
LINE
5
181
100
AcDbEntity
8
0
100
AcDbLine
10
8.5850000000000062
20
-0.80000000000000016
30
0
11
6.65500000000001
21
-0.80000000000000016
31
0
0
LINE
5
182
100
AcDbEntity
8
0
100
AcDbLine
10
6.65500000000001
20
-0.80000000000000016
30
0
11
6.6550000000000074
21
-3.0700000000000003
31
0
0
ARC
5
183
100
AcDbEntity
8
0
100
AcDbCircle
10
6.3500000000000068
20
-3.069999999999995
30
0
40
0.30500000000000083
210
1.2623373311496426e-59
220
7.0064923216240854e-46
230
1
100
AcDbArc
50
180
51
360
0
LINE
5
184
100
AcDbEntity
8
0
100
AcDbLine
10
6.0450000000000061
20
-3.0699999999999896
30
-3.9255688656793154e-62
11
6.0450000000000061
21
-0.80000000000000016
31
0
0
LINE
5
185
100
AcDbEntity
8
0
100
AcDbLine
10
6.0450000000000061
20
-0.80000000000000016
30
0
11
4.11500000000001
21
-0.80000000000000016
31
0
0
LINE
5
186
100
AcDbEntity
8
0
100
AcDbLine
10
4.11500000000001
20
-0.80000000000000016
30
0
11
4.1150000000000206
21
-2.0700000000000007
31
0
0
ARC
5
187
100
AcDbEntity
8
0
100
AcDbCircle
10
3.8100000000000223
20
-2.0700000000000003
30
0
40
0.30499999999999861
210
4.9303806576313249e-32
220
-1.076817467462938e-48
230
1
100
AcDbArc
50
180
51
360
0
LINE
5
188
100
AcDbEntity
8
0
100
AcDbLine
10
3.5050000000000239
20
-2.0700000000000003
30
1.5037661005775472e-32
11
3.5050000000000066
21
-0.80000000000000016
31
0
0
LINE
5
189
100
AcDbEntity
8
0
100
AcDbLine
10
3.5050000000000066
20
-0.80000000000000016
30
0
11
1.5750000000000104
21
-0.80000000000000016
31
0
0
LINE
5
190
100
AcDbEntity
8
0
100
AcDbLine
10
1.5750000000000104
20
-0.80000000000000016
30
0
11
1.5750000000000077
21
-3.0700000000000003
31
0
0
ARC
5
191
100
AcDbEntity
8
0
100
AcDbCircle
10
1.2700000000000069
20
-3.069999999999995
30
0
40
0.30500000000000083
210
1.2623373311496426e-59
220
7.0064923216240854e-46
230
1
100
AcDbArc
50
180
51
360
0
LINE
5
192
100
AcDbEntity
8
0
100
AcDbLine
10
0.96500000000000608
20
-3.0699999999999896
30
-3.9255688656793154e-62
11
0.9650000000000063
21
-0.80000000000000016
31
0
0
LINE
5
193
100
AcDbEntity
8
0
100
AcDbLine
10
0.9650000000000063
20
-0.80000000000000016
30
0
11
-0.96499999999998987
21
-0.80000000000000016
31
0
0
LINE
5
194
100
AcDbEntity
8
0
100
AcDbLine
10
-0.96499999999998987
20
-0.80000000000000016
30
0
11
-0.96499999999999231
21
-3.0700000000000003
31
0
0
ARC
5
195
100
AcDbEntity
8
0
100
AcDbCircle
10
-1.2699999999999931
20
-3.069999999999995
30
0
40
0.30500000000000083
210
1.2623373311496426e-59
220
7.0064923216240854e-46
230
1
100
AcDbArc
50
180
51
360
0
LINE
5
196
100
AcDbEntity
8
0
100
AcDbLine
10
-1.574999999999994
20
-3.0699999999999896
30
-3.9255688656793154e-62
11
-1.5749999999999935
21
-0.80000000000000016
31
0
0
LINE
5
197
100
AcDbEntity
8
0
100
AcDbLine
10
-1.5749999999999935
20
-0.80000000000000016
30
0
11
-3.5049999999999901
21
-0.80000000000000016
31
0
0
LINE
5
198
100
AcDbEntity
8
0
100
AcDbLine
10
-3.5049999999999901
20
-0.80000000000000016
30
0
11
-3.5049999999999795
21
-2.0700000000000007
31
0
0
ARC
5
199
100
AcDbEntity
8
0
100
AcDbCircle
10
-3.8099999999999778
20
-2.0700000000000003
30
0
40
0.30499999999999861
210
4.9303806576313249e-32
220
-1.076817467462938e-48
230
1
100
AcDbArc
50
180
51
360
0
LINE
5
200
100
AcDbEntity
8
0
100
AcDbLine
10
-4.1149999999999762
20
-2.0700000000000003
30
1.5037661005775472e-32
11
-4.114999999999994
21
-0.80000000000000016
31
0
0
LINE
5
201
100
AcDbEntity
8
0
100
AcDbLine
10
-4.114999999999994
20
-0.80000000000000016
30
0
11
-6.0449999999999893
21
-0.80000000000000016
31
0
0
LINE
5
202
100
AcDbEntity
8
0
100
AcDbLine
10
-6.0449999999999893
20
-0.80000000000000016
30
0
11
-6.0449999999999928
21
-3.0700000000000003
31
0
0
ARC
5
203
100
AcDbEntity
8
0
100
AcDbCircle
10
-6.3499999999999934
20
-3.069999999999995
30
0
40
0.30500000000000083
210
1.2623373311496426e-59
220
7.0064923216240854e-46
230
1
100
AcDbArc
50
180
51
360
0
LINE
5
204
100
AcDbEntity
8
0
100
AcDbLine
10
-6.654999999999994
20
-3.0699999999999896
30
-3.9255688656793154e-62
11
-6.654999999999994
21
-0.80000000000000016
31
0
0
LINE
5
205
100
AcDbEntity
8
0
100
AcDbLine
10
-6.654999999999994
20
-0.80000000000000016
30
0
11
-8.5849999999999902
21
-0.80000000000000016
31
0
0
LINE
5
206
100
AcDbEntity
8
0
100
AcDbLine
10
-8.5849999999999902
20
-0.80000000000000016
30
0
11
-8.584999999999992
21
-3.0700000000000003
31
0
0
ARC
5
207
100
AcDbEntity
8
0
100
AcDbCircle
10
-8.8899999999999935
20
-3.069999999999995
30
0
40
0.30500000000000083
210
1.2623373311496426e-59
220
7.0064923216240854e-46
230
1
100
AcDbArc
50
180
51
360
0
LINE
5
208
100
AcDbEntity
8
0
100
AcDbLine
10
-9.194999999999995
20
-3.0699999999999896
30
-3.9255688656793154e-62
11
-9.194999999999995
21
-0.80000000000000016
31
0
0
LINE
5
209
100
AcDbEntity
8
0
100
AcDbLine
10
-9.194999999999995
20
-0.80000000000000016
30
0
11
-11.124999999999989
21
-0.80000000000000016
31
0
0
LINE
5
210
100
AcDbEntity
8
0
100
AcDbLine
10
-11.124999999999989
20
-0.80000000000000016
30
0
11
-11.124999999999979
21
-2.0700000000000007
31
0
0
ARC
5
211
100
AcDbEntity
8
0
100
AcDbCircle
10
-11.429999999999978
20
-2.0700000000000003
30
0
40
0.30499999999999972
210
4.9303806576313238e-32
220
-4.4867394477613296e-47
230
1
100
AcDbArc
50
180
51
360
0
LINE
5
212
100
AcDbEntity
8
0
100
AcDbLine
10
-11.734999999999978
20
-2.0700000000000003
30
1.5037661005775524e-32
11
-11.734999999999992
21
-0.80000000000000016
31
0
0
LINE
5
213
100
AcDbEntity
8
0
100
AcDbLine
10
-11.734999999999992
20
-0.80000000000000016
30
0
11
-13.664999999999988
21
-0.80000000000000016
31
0
0
LINE
5
214
100
AcDbEntity
8
0
100
AcDbLine
10
-13.664999999999988
20
-0.80000000000000016
30
0
11
-13.664999999999992
21
-3.0700000000000003
31
0
0
ARC
5
215
100
AcDbEntity
8
0
100
AcDbCircle
10
-13.969999999999994
20
-3.069999999999995
30
0
40
0.30500000000000194
210
0
220
0
230
1
100
AcDbArc
50
180
51
360
0
LINE
5
216
100
AcDbEntity
8
0
100
AcDbLine
10
-14.274999999999995
20
-3.0699999999999896
30
0
11
-14.274999999999993
21
-0.80000000000000016
31
0
0
LINE
5
217
100
AcDbEntity
8
0
100
AcDbLine
10
-14.274999999999993
20
-0.80000000000000016
30
0
11
-16.204999999999991
21
-0.80000000000000016
31
0
0
LINE
5
218
100
AcDbEntity
8
0
100
AcDbLine
10
-16.204999999999991
20
-0.80000000000000016
30
0
11
-16.204999999999977
21
-2.0700000000000007
31
0
0
ARC
5
219
100
AcDbEntity
8
0
100
AcDbCircle
10
-16.509999999999977
20
-2.0700000000000003
30
0
40
0.30499999999999972
210
4.9303806576313238e-32
220
-4.4867394477613296e-47
230
1
100
AcDbArc
50
180
51
360
0
LINE
5
220
100
AcDbEntity
8
0
100
AcDbLine
10
-16.814999999999976
20
-2.0700000000000003
30
1.5037661005775524e-32
11
-16.814999999999991
21
-1.0666666666666667
31
0
0
LINE
5
221
100
AcDbEntity
8
0
100
AcDbLine
10
-16.814999999999991
20
-1.0666666666666667
30
0
11
-18.109999999999996
21
-1.0666666666666669
31
0
0
ELLIPSE
5
222
100
AcDbEntity
8
0
100
AcDbEllipse
10
-18.109999999999996
20
-0.80000000000000016
30
0
11
0.80000000000000071
21
0
31
0.0
40
0.33333333333333309
41
3.6660698772884142
42
4.7123889803846826
0
ARC
5
223
100
AcDbEntity
8
0
100
AcDbCircle
10
-19.301708496607038
20
-1.8000000000000145
30
0
40
1.0000000000000155
210
-5.9764683309744527e-32
220
-4.9678148115915224e-33
230
1
100
AcDbArc
50
60.050280367042731
51
89.999999999999588
0
LINE
5
224
100
AcDbEntity
8
0
100
AcDbLine
10
-19.301708496607031
20
-0.79999999999999893
30
-3.2544405107520048e-33
11
-27.825176065070075
21
-0.80000000000000016
31
0
0
ARC
5
225
100
AcDbEntity
8
0
100
AcDbCircle
10
-27.825176065070082
20
-1.2999999999999967
30
0
40
0.49999999999999656
210
0
220
-0
230
1
100
AcDbArc
50
89.99999999999919
51
143.77845338016488
0
ARC
5
226
100
AcDbEntity
8
0
100
AcDbCircle
10
-29.599999999999966
20
0
30
0
40
1.6999999999999988
210
-1.456703376118346e-32
220
1.9887630907907769e-32
230
1
100
AcDbArc
50
216.2215466198351
51
323.77845338016499
0
ARC
5
227
100
AcDbEntity
8
0
100
AcDbCircle
10
-31.374823934929847
20
-1.2999999999999969
30
0
40
0.49999999999999817
210
-1.4567033761183378e-32
220
1.9887630907907827e-32
230
1
100
AcDbArc
50
36.221546619834946
51
90.000000000000398
0
LINE
5
228
100
AcDbEntity
8
0
100
AcDbLine
10
-31.37482393492985
20
-0.79999999999999871
30
-9.9438154539539434e-33
11
-37.599999999999973
21
-0.80000000000000016
31
0
0
ARC
5
229
100
AcDbEntity
8
0
100
AcDbCircle
10
-37.599999999999973
20
-2.7999999999999989
30
0
40
1.9999999999999991
210
0
220
-0
230
1
100
AcDbArc
50
90
51
180
0
LINE
5
230
100
AcDbEntity
8
0
100
AcDbLine
10
-39.599999999999966
20
-2.799999999999998
30
0
11
-39.599999999999966
21
-52.200000000000003
31
0
0
ARC
5
231
100
AcDbEntity
8
0
100
AcDbCircle
10
-37.599999999999966
20
-52.200000000000003
30
0
40
2.0000000000000018
210
0
220
0
230
1
100
AcDbArc
50
180
51
270
0
LINE
5
232
100
AcDbEntity
8
0
100
AcDbLine
10
-37.599999999999966
20
-54.20000000000001
30
0
11
-31.37482393492985
21
-54.200000000000003
31
0
0
ARC
5
233
100
AcDbEntity
8
0
100
AcDbCircle
10
-31.374823934929861
20
-53.700000000000003
30
0
40
0.49999999999999822
210
-0
220
0
230
1
100
AcDbArc
50
270.00000000000119
51
323.77845338016624
0
ARC
5
234
100
AcDbEntity
8
0
100
AcDbCircle
10
-29.599999999999966
20
-55.000000000000007
30
0
40
1.7000000000000051
210
0
220
-0
230
1
100
AcDbArc
50
36.221546619835344
51
143.77845338016462
0
ARC
5
235
100
AcDbEntity
8
0
100
AcDbCircle
10
-27.825176065070075
20
-53.700000000000003
30
0
40
0.50000000000000178
210
0
220
0
230
1
100
AcDbArc
50
216.22154661983413
51
270
0
LINE
5
236
100
AcDbEntity
8
0
100
AcDbLine
10
-27.825176065070075
20
-54.20000000000001
30
0
11
-19.301708496607031
21
-54.20000000000001
31
0
0
ARC
5
237
100
AcDbEntity
8
0
100
AcDbCircle
10
-19.301708496607088
20
-53.199999999999861
30
0
40
1.0000000000001474
210
-0
220
0
230
1
100
AcDbArc
50
270.00000000000324
51
299.94971963295581
0
ELLIPSE
5
238
100
AcDbEntity
8
0
100
AcDbEllipse
10
-18.109999999999996
20
-54.200000000000003
30
0
11
0.80000000000000071
21
0
31
0.0
40
0.33333333333333309
41
1.5707963267949072
42
2.6171154298911987
0
LINE
5
239
100
AcDbEntity
8
0
100
AcDbLine
10
-18.110000000000003
20
-53.933333333333337
30
2.7784450290858517e-46
11
-17.259999999998492
21
-53.933333333333337
31
0
0
LINE
5
240
100
AcDbEntity
8
0
100
AcDbLine
10
-17.259999999998492
20
-53.933333333333337
30
0
11
-17.25999999999982
21
-51.959999999999937
31
0
0
ARC
5
241
100
AcDbEntity
8
0
100
AcDbCircle
10
-16.759999999999827
20
-51.959999999999937
30
0
40
0.4999999999999965
210
3.8210450096492667e-33
220
-1.1718732822553437e-32
230
1
100
AcDbArc
50
108.05923049071004
51
180
0
LINE
5
242
100
AcDbEntity
8
0
100
AcDbLine
10
-16.914999999999218
20
-51.484631721714365
30
6.1629758220391123e-33
11
-16.914999999999218
21
-50.864999999999938
31
0
0
ARC
5
243
100
AcDbEntity
8
0
100
AcDbCircle
10
-16.509999999999245
20
-50.864999999999974
30
0
40
0.40499999999997094
210
-0
220
0
230
1
100
AcDbArc
50
0
51
180
0
LINE
5
244
100
AcDbEntity
8
0
100
AcDbLine
10
-16.104999999999276
20
-50.865000000000009
30
0
11
-16.104999999999219
21
-51.48463172171482
31
0
0
ARC
5
245
100
AcDbEntity
8
0
100
AcDbCircle
10
-16.259999999999984
20
-51.959999999999866
30
0
40
0.49999999999992717
210
0
220
-0
230
1
100
AcDbArc
50
0
51
71.94076950912148
0
LINE
5
246
100
AcDbEntity
8
0
100
AcDbLine
10
-15.760000000000057
20
-51.959999999999852
30
0
11
-15.760000000000057
21
-54.200000000000003
31
0
0
LINE
5
247
100
AcDbEntity
8
0
100
AcDbLine
10
-15.760000000000057
20
-54.200000000000003
30
0
11
-14.71999999999831
21
-54.199999999999953
31
0
0
LINE
5
248
100
AcDbEntity
8
0
100
AcDbLine
10
-14.71999999999831
20
-54.199999999999953
30
0
11
-14.719999999999825
21
-51.959999999999937
31
0
0
ARC
5
249
100
AcDbEntity
8
0
100
AcDbCircle
10
-14.219999999999827
20
-51.959999999999937
30
0
40
0.49999999999999822
210
0
220
0
230
1
100
AcDbArc
50
90.000000000014239
51
180
0
LINE
5
250
100
AcDbEntity
8
0
100
AcDbLine
10
-14.219999999999951
20
-51.459999999999937
30
0
11
-13.719999999999983
21
-51.459999999999937
31
0
0
ARC
5
251
100
AcDbEntity
8
0
100
AcDbCircle
10
-13.719999999999983
20
-51.959999999999866
30
0
40
0.49999999999992717
210
0
220
-0
230
1
100
AcDbArc
50
0
51
90
0
LINE
5
252
100
AcDbEntity
8
0
100
AcDbLine
10
-13.220000000000056
20
-51.959999999999852
30
0
11
-13.220000000000056
21
-54.200000000000003
31
0
0
LINE
5
253
100
AcDbEntity
8
0
100
AcDbLine
10
-13.220000000000056
20
-54.200000000000003
30
0
11
-12.17999999999831
21
-54.199999999999953
31
0
0
LINE
5
254
100
AcDbEntity
8
0
100
AcDbLine
10
-12.17999999999831
20
-54.199999999999953
30
0
11
-12.179999999999822
21
-51.959999999999937
31
0
0
ARC
5
255
100
AcDbEntity
8
0
100
AcDbCircle
10
-11.679999999999826
20
-51.959999999999937
30
0
40
0.4999999999999965
210
3.8210450096492667e-33
220
-1.1718732822553437e-32
230
1
100
AcDbArc
50
108.05923049071004
51
180
0
LINE
5
256
100
AcDbEntity
8
0
100
AcDbLine
10
-11.834999999999216
20
-51.484631721714365
30
6.1629758220391123e-33
11
-11.834999999999216
21
-50.864999999999938
31
0
0
ARC
5
257
100
AcDbEntity
8
0
100
AcDbCircle
10
-11.429999999999245
20
-50.864999999999974
30
0
40
0.40499999999997094
210
-0
220
0
230
1
100
AcDbArc
50
0
51
180
0
LINE
5
258
100
AcDbEntity
8
0
100
AcDbLine
10
-11.024999999999274
20
-50.865000000000009
30
0
11
-11.024999999999219
21
-51.48463172171482
31
0
0
ARC
5
259
100
AcDbEntity
8
0
100
AcDbCircle
10
-11.179999999999984
20
-51.959999999999866
30
0
40
0.49999999999992717
210
0
220
-0
230
1
100
AcDbArc
50
0
51
71.94076950912148
0
LINE
5
260
100
AcDbEntity
8
0
100
AcDbLine
10
-10.680000000000057
20
-51.959999999999852
30
0
11
-10.680000000000057
21
-54.200000000000003
31
0
0
LINE
5
261
100
AcDbEntity
8
0
100
AcDbLine
10
-10.680000000000057
20
-54.200000000000003
30
0
11
-9.639999999998313
21
-54.199999999999953
31
0
0
LINE
5
262
100
AcDbEntity
8
0
100
AcDbLine
10
-9.639999999998313
20
-54.199999999999953
30
0
11
-9.6399999999998247
21
-51.959999999999937
31
0
0
ARC
5
263
100
AcDbEntity
8
0
100
AcDbCircle
10
-9.1399999999998265
20
-51.959999999999937
30
0
40
0.49999999999999822
210
0
220
0
230
1
100
AcDbArc
50
90.000000000014452
51
180
0
LINE
5
264
100
AcDbEntity
8
0
100
AcDbLine
10
-9.1399999999999526
20
-51.459999999999937
30
0
11
-8.6399999999999828
21
-51.459999999999937
31
0
0
ARC
5
265
100
AcDbEntity
8
0
100
AcDbCircle
10
-8.6399999999999846
20
-51.959999999999866
30
0
40
0.49999999999992717
210
0
220
-0
230
1
100
AcDbArc
50
0
51
89.999999999999801
0
LINE
5
266
100
AcDbEntity
8
0
100
AcDbLine
10
-8.1400000000000574
20
-51.959999999999852
30
0
11
-8.1400000000000556
21
-54.200000000000003
31
0
0
LINE
5
267
100
AcDbEntity
8
0
100
AcDbLine
10
-8.1400000000000556
20
-54.200000000000003
30
0
11
-7.0999999999983121
21
-54.199999999999953
31
0
0
LINE
5
268
100
AcDbEntity
8
0
100
AcDbLine
10
-7.0999999999983121
20
-54.199999999999953
30
0
11
-7.0999999999998256
21
-51.959999999999937
31
0
0
ARC
5
269
100
AcDbEntity
8
0
100
AcDbCircle
10
-6.5999999999998273
20
-51.959999999999937
30
0
40
0.49999999999999822
210
0
220
0
230
1
100
AcDbArc
50
90.000000000014353
51
180
0
LINE
5
270
100
AcDbEntity
8
0
100
AcDbLine
10
-6.5999999999999526
20
-51.459999999999937
30
0
11
-6.0999999999999837
21
-51.459999999999937
31
0
0
ARC
5
271
100
AcDbEntity
8
0
100
AcDbCircle
10
-6.0999999999999845
20
-51.959999999999866
30
0
40
0.49999999999992717
210
0
220
-0
230
1
100
AcDbArc
50
0
51
89.999999999999901
0
LINE
5
272
100
AcDbEntity
8
0
100
AcDbLine
10
-5.6000000000000574
20
-51.959999999999852
30
0
11
-5.6000000000000565
21
-54.200000000000003
31
0
0
LINE
5
273
100
AcDbEntity
8
0
100
AcDbLine
10
-5.6000000000000565
20
-54.200000000000003
30
0
11
-4.5599999999983112
21
-54.199999999999953
31
0
0
LINE
5
274
100
AcDbEntity
8
0
100
AcDbLine
10
-4.5599999999983112
20
-54.199999999999953
30
0
11
-4.5599999999998229
21
-51.959999999999937
31
0
0
ARC
5
275
100
AcDbEntity
8
0
100
AcDbCircle
10
-4.0599999999998264
20
-51.959999999999937
30
0
40
0.49999999999999684
210
4.6874931290213711e-32
220
1.5284180038597176e-32
230
1
100
AcDbArc
50
108.05923049071015
51
180
0
LINE
5
276
100
AcDbEntity
8
0
100
AcDbLine
10
-4.2149999999992174
20
-51.484631721714365
30
-4.528481168209639e-48
11
-4.2149999999992156
21
-50.864999999999938
31
0
0
ARC
5
277
100
AcDbEntity
8
0
100
AcDbCircle
10
-3.8099999999992447
20
-50.864999999999974
30
0
40
0.40499999999997094
210
-0
220
0
230
1
100
AcDbArc
50
0
51
180
0
LINE
5
278
100
AcDbEntity
8
0
100
AcDbLine
10
-3.4049999999992737
20
-50.865000000000009
30
0
11
-3.404999999999216
21
-51.48463172171482
31
0
0
ARC
5
279
100
AcDbEntity
8
0
100
AcDbCircle
10
-3.5599999999999832
20
-51.959999999999866
30
0
40
0.49999999999992717
210
0
220
-0
230
1
100
AcDbArc
50
0
51
71.940769509121253
0
LINE
5
280
100
AcDbEntity
8
0
100
AcDbLine
10
-3.060000000000056
20
-51.959999999999852
30
0
11
-3.060000000000056
21
-54.200000000000003
31
0
0
LINE
5
281
100
AcDbEntity
8
0
100
AcDbLine
10
-3.060000000000056
20
-54.200000000000003
30
0
11
-2.0199999999983107
21
-54.199999999999953
31
0
0
LINE
5
282
100
AcDbEntity
8
0
100
AcDbLine
10
-2.0199999999983107
20
-54.199999999999953
30
0
11
-2.0199999999998246
21
-51.959999999999937
31
0
0
ARC
5
283
100
AcDbEntity
8
0
100
AcDbCircle
10
-1.5199999999998262
20
-51.959999999999937
30
0
40
0.49999999999999822
210
0
220
0
230
1
100
AcDbArc
50
90.000000000014353
51
180
0
LINE
5
284
100
AcDbEntity
8
0
100
AcDbLine
10
-1.5199999999999514
20
-51.459999999999937
30
0
11
-1.0199999999999831
21
-51.459999999999937
31
0
0
ARC
5
285
100
AcDbEntity
8
0
100
AcDbCircle
10
-1.0199999999999834
20
-51.959999999999866
30
0
40
0.49999999999992717
210
0
220
-0
230
1
100
AcDbArc
50
0
51
89.999999999999972
0
LINE
5
286
100
AcDbEntity
8
0
100
AcDbLine
10
-0.52000000000005608
20
-51.959999999999852
30
0
11
-0.52000000000005586
21
-54.200000000000003
31
0
0
LINE
5
287
100
AcDbEntity
8
0
100
AcDbLine
10
-0.52000000000005586
20
-54.200000000000003
30
0
11
0.52000000000168889
21
-54.199999999999953
31
0
0
LINE
5
288
100
AcDbEntity
8
0
100
AcDbLine
10
0.52000000000168889
20
-54.199999999999953
30
0
11
0.52000000000017543
21
-51.959999999999937
31
0
0
ARC
5
289
100
AcDbEntity
8
0
100
AcDbCircle
10
1.0200000000001737
20
-51.959999999999937
30
0
40
0.49999999999999822
210
0
220
0
230
1
100
AcDbArc
50
90.000000000014296
51
180
0
LINE
5
290
100
AcDbEntity
8
0
100
AcDbLine
10
1.0200000000000489
20
-51.459999999999937
30
0
11
1.5200000000000173
21
-51.459999999999937
31
0
0
ARC
5
291
100
AcDbEntity
8
0
100
AcDbCircle
10
1.5200000000000169
20
-51.959999999999866
30
0
40
0.49999999999992717
210
0
220
-0
230
1
100
AcDbArc
50
0
51
89.999999999999943
0
LINE
5
292
100
AcDbEntity
8
0
100
AcDbLine
10
2.0199999999999441
20
-51.959999999999852
30
0
11
2.0199999999999441
21
-54.200000000000003
31
0
0
LINE
5
293
100
AcDbEntity
8
0
100
AcDbLine
10
2.0199999999999441
20
-54.200000000000003
30
0
11
3.0600000000016889
21
-54.199999999999953
31
0
0
LINE
5
294
100
AcDbEntity
8
0
100
AcDbLine
10
3.0600000000016889
20
-54.199999999999953
30
0
11
3.0600000000001772
21
-51.959999999999937
31
0
0
ARC
5
295
100
AcDbEntity
8
0
100
AcDbCircle
10
3.5600000000001737
20
-51.959999999999937
30
0
40
0.49999999999999684
210
4.6874931290213711e-32
220
1.5284180038597176e-32
230
1
100
AcDbArc
50
108.05923049071018
51
180
0
LINE
5
296
100
AcDbEntity
8
0
100
AcDbLine
10
3.4050000000007823
20
-51.484631721714365
30
-4.528481168209639e-48
11
3.4050000000007845
21
-50.864999999999938
31
0
0
ARC
5
297
100
AcDbEntity
8
0
100
AcDbCircle
10
3.8100000000007554
20
-50.864999999999974
30
0
40
0.40499999999997094
210
-0
220
0
230
1
100
AcDbArc
50
0
51
180
0
LINE
5
298
100
AcDbEntity
8
0
100
AcDbLine
10
4.2150000000007264
20
-50.865000000000009
30
0
11
4.2150000000007841
21
-51.48463172171482
31
0
0
ARC
5
299
100
AcDbEntity
8
0
100
AcDbCircle
10
4.0600000000000165
20
-51.959999999999866
30
0
40
0.49999999999992717
210
0
220
-0
230
1
100
AcDbArc
50
0
51
71.94076950912121
0
LINE
5
300
100
AcDbEntity
8
0
100
AcDbLine
10
4.5599999999999437
20
-51.959999999999852
30
0
11
4.5599999999999437
21
-54.200000000000003
31
0
0
LINE
5
301
100
AcDbEntity
8
0
100
AcDbLine
10
4.5599999999999437
20
-54.200000000000003
30
0
11
5.6000000000016881
21
-54.199999999999953
31
0
0
LINE
5
302
100
AcDbEntity
8
0
100
AcDbLine
10
5.6000000000016881
20
-54.199999999999953
30
0
11
5.6000000000001746
21
-51.959999999999937
31
0
0
ARC
5
303
100
AcDbEntity
8
0
100
AcDbCircle
10
6.1000000000001728
20
-51.959999999999937
30
0
40
0.49999999999999822
210
0
220
0
230
1
100
AcDbArc
50
90.000000000014353
51
180
0
LINE
5
304
100
AcDbEntity
8
0
100
AcDbLine
10
6.1000000000000476
20
-51.459999999999937
30
0
11
6.6000000000000174
21
-51.459999999999937
31
0
0
ARC
5
305
100
AcDbEntity
8
0
100
AcDbCircle
10
6.6000000000000156
20
-51.959999999999866
30
0
40
0.49999999999992717
210
0
220
-0
230
1
100
AcDbArc
50
0
51
89.999999999999801
0
LINE
5
306
100
AcDbEntity
8
0
100
AcDbLine
10
7.0999999999999428
20
-51.959999999999852
30
0
11
7.0999999999999446
21
-54.200000000000003
31
0
0
LINE
5
307
100
AcDbEntity
8
0
100
AcDbLine
10
7.0999999999999446
20
-54.200000000000003
30
0
11
8.1400000000016881
21
-54.199999999999953
31
0
0
LINE
5
308
100
AcDbEntity
8
0
100
AcDbLine
10
8.1400000000016881
20
-54.199999999999953
30
0
11
8.1400000000001747
21
-51.959999999999937
31
0
0
ARC
5
309
100
AcDbEntity
8
0
100
AcDbCircle
10
8.6400000000001729
20
-51.959999999999937
30
0
40
0.49999999999999822
210
0
220
0
230
1
100
AcDbArc
50
90.000000000014452
51
180
0
LINE
5
310
100
AcDbEntity
8
0
100
AcDbLine
10
8.6400000000000468
20
-51.459999999999937
30
0
11
9.1400000000000166
21
-51.459999999999937
31
0
0
ARC
5
311
100
AcDbEntity
8
0
100
AcDbCircle
10
9.1400000000000166
20
-51.959999999999866
30
0
40
0.49999999999992717
210
0
220
-0
230
1
100
AcDbArc
50
0
51
90
0
LINE
5
312
100
AcDbEntity
8
0
100
AcDbLine
10
9.6399999999999437
20
-51.959999999999852
30
0
11
9.6399999999999437
21
-54.200000000000003
31
0
0
LINE
5
313
100
AcDbEntity
8
0
100
AcDbLine
10
9.6399999999999437
20
-54.200000000000003
30
0
11
10.680000000001691
21
-54.199999999999953
31
0
0
LINE
5
314
100
AcDbEntity
8
0
100
AcDbLine
10
10.680000000001691
20
-54.199999999999953
30
0
11
10.680000000000177
21
-51.959999999999937
31
0
0
ARC
5
315
100
AcDbEntity
8
0
100
AcDbCircle
10
11.180000000000174
20
-51.959999999999937
30
0
40
0.4999999999999965
210
3.8210450096492667e-33
220
-1.1718732822553437e-32
230
1
100
AcDbArc
50
108.05923049071004
51
180
0
LINE
5
316
100
AcDbEntity
8
0
100
AcDbLine
10
11.025000000000784
20
-51.484631721714365
30
6.1629758220391123e-33
11
11.025000000000784
21
-50.864999999999938
31
0
0
ARC
5
317
100
AcDbEntity
8
0
100
AcDbCircle
10
11.430000000000755
20
-50.864999999999974
30
0
40
0.40499999999997094
210
-0
220
0
230
1
100
AcDbArc
50
0
51
180
0
LINE
5
318
100
AcDbEntity
8
0
100
AcDbLine
10
11.835000000000726
20
-50.865000000000009
30
0
11
11.835000000000782
21
-51.48463172171482
31
0
0
ARC
5
319
100
AcDbEntity
8
0
100
AcDbCircle
10
11.680000000000017
20
-51.959999999999866
30
0
40
0.49999999999992717
210
0
220
-0
230
1
100
AcDbArc
50
0
51
71.94076950912148
0
LINE
5
320
100
AcDbEntity
8
0
100
AcDbLine
10
12.179999999999945
20
-51.959999999999852
30
0
11
12.179999999999945
21
-54.200000000000003
31
0
0
LINE
5
321
100
AcDbEntity
8
0
100
AcDbLine
10
12.179999999999945
20
-54.200000000000003
30
0
11
13.22000000000169
21
-54.199999999999953
31
0
0
LINE
5
322
100
AcDbEntity
8
0
100
AcDbLine
10
13.22000000000169
20
-54.199999999999953
30
0
11
13.220000000000176
21
-51.959999999999937
31
0
0
ARC
5
323
100
AcDbEntity
8
0
100
AcDbCircle
10
13.720000000000175
20
-51.959999999999937
30
0
40
0.49999999999999822
210
0
220
0
230
1
100
AcDbArc
50
90.000000000014239
51
180
0
LINE
5
324
100
AcDbEntity
8
0
100
AcDbLine
10
13.72000000000005
20
-51.459999999999937
30
0
11
14.220000000000017
21
-51.459999999999937
31
0
0
ARC
5
325
100
AcDbEntity
8
0
100
AcDbCircle
10
14.220000000000017
20
-51.959999999999866
30
0
40
0.49999999999992717
210
0
220
-0
230
1
100
AcDbArc
50
0
51
90
0
LINE
5
326
100
AcDbEntity
8
0
100
AcDbLine
10
14.719999999999944
20
-51.959999999999852
30
0
11
14.719999999999944
21
-54.200000000000003
31
0
0
LINE
5
327
100
AcDbEntity
8
0
100
AcDbLine
10
14.719999999999944
20
-54.200000000000003
30
0
11
15.760000000001691
21
-54.199999999999953
31
0
0
LINE
5
328
100
AcDbEntity
8
0
100
AcDbLine
10
15.760000000001691
20
-54.199999999999953
30
0
11
15.760000000000179
21
-51.959999999999937
31
0
0
ARC
5
329
100
AcDbEntity
8
0
100
AcDbCircle
10
16.260000000000176
20
-51.959999999999937
30
0
40
0.4999999999999965
210
3.8210450096492667e-33
220
-1.1718732822553437e-32
230
1
100
AcDbArc
50
108.05923049071004
51
180
0
LINE
5
330
100
AcDbEntity
8
0
100
AcDbLine
10
16.105000000000786
20
-51.484631721714365
30
6.1629758220391123e-33
11
16.105000000000786
21
-50.864999999999938
31
0
0
ARC
5
331
100
AcDbEntity
8
0
100
AcDbCircle
10
16.510000000000755
20
-50.864999999999974
30
0
40
0.40499999999997094
210
-0
220
0
230
1
100
AcDbArc
50
0
51
180
0
LINE
5
332
100
AcDbEntity
8
0
100
AcDbLine
10
16.915000000000727
20
-50.865000000000009
30
0
11
16.915000000000781
21
-51.48463172171482
31
0
0
ARC
5
333
100
AcDbEntity
8
0
100
AcDbCircle
10
16.760000000000016
20
-51.959999999999866
30
0
40
0.49999999999992717
210
0
220
-0
230
1
100
AcDbArc
50
0
51
71.94076950912148
0
ENDSEC
0
SECTION
2
OBJECTS
0
DICTIONARY
5
C
100
AcDbDictionary
3
ACAD_GROUP
350
D
3
ACAD_MLINESTYLE
350
17
0
DICTIONARY
5
D
100
AcDbDictionary
0
DICTIONARY
5
1A
330
C
100
AcDbDictionary
0
DICTIONARY
5
17
100
AcDbDictionary
0
ENDSEC
0
EOF
