0
SECTION
2
HEADER
9
$INSUNITS
70
4
9
$ACADVER
1
AC1014
9
$HANDSEED
5
FFFF
0
ENDSEC
0
SECTION
2
TABLES
0
TABLE
2
VPORT
5
8
100
AcDbSymbolTable
0
ENDTAB
0
TABLE
2
LTYPE
5
5
100
AcDbSymbolTable
0
LTYPE
5
14
100
AcDbSymbolTableRecord
100
AcDbLinetypeTableRecord
2
BYBLOCK
70
0
0
LTYPE
5
15
100
AcDbSymbolTableRecord
100
AcDbLinetypeTableRecord
2
BYLAYER
70
0
0
ENDTAB
0
TABLE
2
LAYER
5
2
100
AcDbSymbolTable
70
2
0
LAYER
5
50
100
AcDbSymbolTableRecord
100
AcDbLayerTableRecord
2
0
70
0
6
CONTINUOUS
0
ENDTAB
0
TABLE
2
STYLE
5
3
100
AcDbSymbolTable
70
1
0
STYLE
5
11
100
AcDbSymbolTableRecord
100
AcDbTextStyleTableRecord
2
STANDARD
70
0
0
ENDTAB
0
TABLE
2
VIEW
5
6
100
AcDbSymbolTable
70
0
0
ENDTAB
0
TABLE
2
UCS
5
7
100
AcDbSymbolTable
70
0
0
ENDTAB
0
TABLE
2
APPID
5
9
100
AcDbSymbolTable
70
2
0
APPID
5
12
100
AcDbSymbolTableRecord
100
AcDbRegAppTableRecord
2
ACAD
70
0
0
ENDTAB
0
TABLE
2
DIMSTYLE
5
A
100
AcDbSymbolTable
70
1
0
ENDTAB
0
TABLE
2
BLOCK_RECORD
5
1
100
AcDbSymbolTable
70
1
0
BLOCK_RECORD
5
1F
100
AcDbSymbolTableRecord
100
AcDbBlockTableRecord
2
*MODEL_SPACE
0
BLOCK_RECORD
5
1B
100
AcDbSymbolTableRecord
100
AcDbBlockTableRecord
2
*PAPER_SPACE
0
ENDTAB
0
ENDSEC
0
SECTION
2
BLOCKS
0
BLOCK
5
20
100
AcDbEntity
100
AcDbBlockBegin
2
*MODEL_SPACE
0
ENDBLK
5
21
100
AcDbEntity
100
AcDbBlockEnd
0
BLOCK
5
1C
100
AcDbEntity
100
AcDbBlockBegin
2
*PAPER_SPACE
0
ENDBLK
5
1D
100
AcDbEntity
100
AcDbBlockEnd
0
ENDSEC
0
SECTION
2
ENTITIES
0
LWPOLYLINE
5
100
100
AcDbEntity
8
0
100
AcDbPolyline
90
8
70
1
43
0.0
10
21.099999999999955
20
-45.949999999999982
10
-21.099999999999973
20
-45.949999999999982
42
-0.41421356237309509
10
-23.099999999999973
20
-43.949999999999974
10
-23.099999999999969
20
-11.050000000000004
42
-0.41421356237309509
10
-21.099999999999973
20
-9.0500000000000043
10
21.099999999999962
20
-9.0499999999999972
42
-0.41421356237309509
10
23.099999999999966
20
-11.050000000000001
10
23.099999999999959
20
-43.949999999999974
42
-0.4142135623730957
0
LINE
5
101
100
AcDbEntity
8
0
100
AcDbLine
10
-16.15500000000084
20
-50.814999999999998
30
0
11
-16.155000000000829
21
-51.47114930704744
31
1.2401628254827788e-46
0
ARC
5
102
100
AcDbEntity
8
0
100
AcDbCircle
10
-16.260000000000176
20
-51.959999999999937
30
0
40
0.49999999999999822
210
4.9303806576313238e-32
220
-0
230
1
100
AcDbArc
50
0
51
77.877647755287427
0
LINE
5
103
100
AcDbEntity
8
0
100
AcDbLine
10
-15.760000000000176
20
-51.959999999999937
30
-2.4651903288156531e-32
11
-15.760000000001691
21
-54.199999999999953
31
-3.1888435024344775e-44
0
LINE
5
104
100
AcDbEntity
8
0
100
AcDbLine
10
-15.760000000001691
20
-54.199999999999953
30
-3.1888435024344775e-44
11
-14.719999999999944
21
-54.200000000000003
31
-4.5009527945488596e-46
0
LINE
5
105
100
AcDbEntity
8
0
100
AcDbLine
10
-14.719999999999944
20
-54.200000000000003
30
-4.5009527945488596e-46
11
-14.719999999999944
21
-51.959999999999852
31
0
0
ARC
5
106
100
AcDbEntity
8
0
100
AcDbCircle
10
-14.220000000000017
20
-51.959999999999866
30
0
40
0.49999999999992717
210
0
220
-0
230
1
100
AcDbArc
50
90
51
180
0
LINE
5
107
100
AcDbEntity
8
0
100
AcDbLine
10
-14.220000000000017
20
-51.459999999999937
30
0
11
-13.72000000000005
21
-51.459999999999937
31
-1.8176400497880091e-144
0
ARC
5
108
100
AcDbEntity
8
0
100
AcDbCircle
10
-13.720000000000175
20
-51.959999999999937
30
0
40
0.49999999999999822
210
4.9303806576313238e-32
220
-0
230
1
100
AcDbArc
50
0
51
89.999999999985747
0
LINE
5
109
100
AcDbEntity
8
0
100
AcDbLine
10
-13.220000000000176
20
-51.959999999999937
30
-2.4651903288156531e-32
11
-13.22000000000169
21
-54.199999999999953
31
-3.1888435024344775e-44
0
LINE
5
110
100
AcDbEntity
8
0
100
AcDbLine
10
-13.22000000000169
20
-54.199999999999953
30
-3.1888435024344775e-44
11
-12.179999999999945
21
-54.200000000000003
31
-4.5009527945488596e-46
0
LINE
5
111
100
AcDbEntity
8
0
100
AcDbLine
10
-12.179999999999945
20
-54.200000000000003
30
-4.5009527945488596e-46
11
-12.179999999999946
21
-51.959999999999852
31
-2.3947971802426073e-47
0
ARC
5
112
100
AcDbEntity
8
0
100
AcDbCircle
10
-11.680000000000017
20
-51.959999999999866
30
0
40
0.49999999999993117
210
-2.5884498452763867e-33
220
1.9158553408343592e-33
230
1
100
AcDbArc
50
102.12235224488384
51
180
0
LINE
5
113
100
AcDbEntity
8
0
100
AcDbLine
10
-11.785000000000812
20
-51.471149307047746
30
-1.2083544447189666e-33
11
-11.785000000000846
21
-50.814999999999969
31
-5.5422449028471769e-46
0
ARC
5
114
100
AcDbEntity
8
0
100
AcDbCircle
10
-11.430000000000842
20
-50.814999999999984
30
0
40
0.35500000000000309
210
4.9303806576313741e-32
220
-3.0007724184464545e-45
230
1
100
AcDbArc
50
0
51
180
0
LINE
5
115
100
AcDbEntity
8
0
100
AcDbLine
10
-11.075000000000838
20
-50.814999999999998
30
-1.750285133459153e-32
11
-11.075000000000827
21
-51.47114930704744
31
1.2401628254827788e-46
0
ARC
5
116
100
AcDbEntity
8
0
100
AcDbCircle
10
-11.180000000000174
20
-51.959999999999937
30
0
40
0.49999999999999822
210
4.9303806576313238e-32
220
-0
230
1
100
AcDbArc
50
0
51
77.877647755287427
0
LINE
5
117
100
AcDbEntity
8
0
100
AcDbLine
10
-10.680000000000176
20
-51.959999999999937
30
-2.4651903288156531e-32
11
-10.680000000001691
21
-54.199999999999953
31
-3.1888435024344775e-44
0
LINE
5
118
100
AcDbEntity
8
0
100
AcDbLine
10
-10.680000000001691
20
-54.199999999999953
30
-3.1888435024344775e-44
11
-9.6399999999999437
21
-54.200000000000003
31
-4.5009527945488596e-46
0
LINE
5
119
100
AcDbEntity
8
0
100
AcDbLine
10
-9.6399999999999437
20
-54.200000000000003
30
-4.5009527945488596e-46
11
-9.6399999999999437
21
-51.959999999999852
31
-2.3947971802426073e-47
0
ARC
5
120
100
AcDbEntity
8
0
100
AcDbCircle
10
-9.1400000000000166
20
-51.959999999999866
30
0
40
0.49999999999992717
210
-2.250476397274775e-47
220
7.9370420830897793e-47
230
1
100
AcDbArc
50
90.000000000000199
51
180
0
LINE
5
121
100
AcDbEntity
8
0
100
AcDbLine
10
-9.1400000000000183
20
-51.459999999999937
30
-3.968521041544314e-47
11
-8.6400000000000485
21
-51.459999999999937
31
4.0765911875619896e-111
0
ARC
5
122
100
AcDbEntity
8
0
100
AcDbCircle
10
-8.6400000000001747
20
-51.959999999999937
30
0
40
0.49999999999999822
210
4.9303806576313238e-32
220
-0
230
1
100
AcDbArc
50
0
51
89.999999999985548
0
LINE
5
123
100
AcDbEntity
8
0
100
AcDbLine
10
-8.1400000000001764
20
-51.959999999999937
30
-2.4651903288156531e-32
11
-8.1400000000016899
21
-54.199999999999953
31
-3.1888435024344775e-44
0
LINE
5
124
100
AcDbEntity
8
0
100
AcDbLine
10
-8.1400000000016899
20
-54.199999999999953
30
-3.1888435024344775e-44
11
-7.0999999999999455
21
-54.200000000000003
31
-4.5009527945488596e-46
0
LINE
5
125
100
AcDbEntity
8
0
100
AcDbLine
10
-7.0999999999999455
20
-54.200000000000003
30
-4.5009527945488596e-46
11
-7.0999999999999446
21
-51.959999999999852
31
-2.3947971802426073e-47
0
ARC
5
126
100
AcDbEntity
8
0
100
AcDbCircle
10
-6.6000000000000174
20
-51.959999999999866
30
0
40
0.49999999999992717
210
-2.250476397274775e-47
220
7.9370420830897793e-47
230
1
100
AcDbArc
50
90.000000000000099
51
180
0
LINE
5
127
100
AcDbEntity
8
0
100
AcDbLine
10
-6.6000000000000183
20
-51.459999999999937
30
-3.968521041544314e-47
11
-6.1000000000000485
21
-51.459999999999937
31
4.0765911875619896e-111
0
ARC
5
128
100
AcDbEntity
8
0
100
AcDbCircle
10
-6.1000000000001737
20
-51.959999999999937
30
0
40
0.49999999999999822
210
4.9303806576313238e-32
220
-0
230
1
100
AcDbArc
50
0
51
89.999999999985647
0
LINE
5
129
100
AcDbEntity
8
0
100
AcDbLine
10
-5.6000000000001755
20
-51.959999999999937
30
-2.4651903288156531e-32
11
-5.600000000001689
21
-54.199999999999953
31
-3.1888435024344775e-44
0
LINE
5
130
100
AcDbEntity
8
0
100
AcDbLine
10
-5.600000000001689
20
-54.199999999999953
30
-3.1888435024344775e-44
11
-4.5599999999999445
21
-54.200000000000003
31
-4.5009527945488596e-46
0
LINE
5
131
100
AcDbEntity
8
0
100
AcDbLine
10
-4.5599999999999445
20
-54.200000000000003
30
-4.5009527945488596e-46
11
-4.559999999999949
21
-51.959999999999852
31
8.5528470722950261e-47
0
ARC
5
132
100
AcDbEntity
8
0
100
AcDbCircle
10
-4.0600000000000174
20
-51.959999999999866
30
0
40
0.49999999999993056
210
4.5615950174746056e-32
220
1.2269654721939667e-32
230
1
100
AcDbArc
50
102.12235224488354
51
180
0
LINE
5
133
100
AcDbEntity
8
0
100
AcDbLine
10
-4.1650000000008092
20
-51.471149307047746
30
-1.2083544447189634e-33
11
-4.1650000000008482
21
-50.814999999999969
31
-5.5422449028471769e-46
0
ARC
5
134
100
AcDbEntity
8
0
100
AcDbCircle
10
-3.8100000000008425
20
-50.814999999999984
30
0
40
0.35500000000000531
210
5.071496106533584e-46
220
-5.3369765731123499e-46
230
1
100
AcDbArc
50
0
51
180
0
LINE
5
135
100
AcDbEntity
8
0
100
AcDbLine
10
-3.4550000000008376
20
-50.814999999999998
30
-1.8003811178195438e-46
11
-3.4550000000008279
21
-51.47114930704744
31
1.2401628254827788e-46
0
ARC
5
136
100
AcDbEntity
8
0
100
AcDbCircle
10
-3.5600000000001741
20
-51.959999999999937
30
0
40
0.49999999999999822
210
4.9303806576313238e-32
220
-0
230
1
100
AcDbArc
50
0
51
77.877647755287484
0
LINE
5
137
100
AcDbEntity
8
0
100
AcDbLine
10
-3.0600000000001759
20
-51.959999999999937
30
-2.4651903288156531e-32
11
-3.0600000000016898
21
-54.199999999999953
31
-3.1888435024344775e-44
0
LINE
5
138
100
AcDbEntity
8
0
100
AcDbLine
10
-3.0600000000016898
20
-54.199999999999953
30
-3.1888435024344775e-44
11
-2.0199999999999454
21
-54.200000000000003
31
-4.5009527945488596e-46
0
LINE
5
139
100
AcDbEntity
8
0
100
AcDbLine
10
-2.0199999999999454
20
-54.200000000000003
30
-4.5009527945488596e-46
11
-2.0199999999999445
21
-51.959999999999852
31
3.4211388289180104e-48
0
ARC
5
140
100
AcDbEntity
8
0
100
AcDbCircle
10
-1.5200000000000173
20
-51.959999999999866
30
0
40
0.49999999999992717
210
-5.6261909931868888e-48
220
-8.2107331894032299e-48
230
1
100
AcDbArc
50
90.000000000000057
51
180
0
LINE
5
141
100
AcDbEntity
8
0
100
AcDbLine
10
-1.5200000000000178
20
-51.459999999999937
30
4.1053665947010151e-48
11
-1.0200000000000489
21
-51.459999999999937
31
-4.2171632974779214e-112
0
ARC
5
142
100
AcDbEntity
8
0
100
AcDbCircle
10
-1.0200000000001743
20
-51.959999999999937
30
0
40
0.49999999999999845
210
4.9303806576313238e-32
220
-0
230
1
100
AcDbArc
50
0
51
89.999999999985619
0
LINE
5
143
100
AcDbEntity
8
0
100
AcDbLine
10
-0.52000000000017577
20
-51.959999999999937
30
-2.4651903288156542e-32
11
-0.52000000000168956
21
-54.199999999999953
31
-3.1888435024344775e-44
0
LINE
5
144
100
AcDbEntity
8
0
100
AcDbLine
10
-0.52000000000168956
20
-54.199999999999953
30
-3.1888435024344775e-44
11
0.52000000000005531
21
-54.200000000000003
31
-4.5009527945488596e-46
0
LINE
5
145
100
AcDbEntity
8
0
100
AcDbLine
10
0.52000000000005531
20
-54.200000000000003
30
-4.5009527945488596e-46
11
0.52000000000005553
21
-51.959999999999852
31
3.4211388289180104e-48
0
ARC
5
146
100
AcDbEntity
8
0
100
AcDbCircle
10
1.0199999999999827
20
-51.959999999999866
30
0
40
0.49999999999992717
210
0
220
-0
230
1
100
AcDbArc
50
89.999999999999972
51
180
0
LINE
5
147
100
AcDbEntity
8
0
100
AcDbLine
10
1.0199999999999829
20
-51.459999999999937
30
0
11
1.5199999999999507
21
-51.459999999999937
31
7.0286054957965341e-112
0
ARC
5
148
100
AcDbEntity
8
0
100
AcDbCircle
10
1.5199999999998257
20
-51.959999999999937
30
0
40
0.4999999999999985
210
4.9303806576313238e-32
220
-0
230
1
100
AcDbArc
50
0
51
89.999999999985675
0
LINE
5
149
100
AcDbEntity
8
0
100
AcDbLine
10
2.0199999999998242
20
-51.959999999999937
30
-2.4651903288156545e-32
11
2.0199999999983103
21
-54.199999999999953
31
-3.1888435024344775e-44
0
LINE
5
150
100
AcDbEntity
8
0
100
AcDbLine
10
2.0199999999983103
20
-54.199999999999953
30
-3.1888435024344775e-44
11
3.060000000000056
21
-54.200000000000003
31
-4.5009527945488596e-46
0
LINE
5
151
100
AcDbEntity
8
0
100
AcDbLine
10
3.060000000000056
20
-54.200000000000003
30
-4.5009527945488596e-46
11
3.0600000000000516
21
-51.959999999999852
31
8.5528470722950261e-47
0
ARC
5
152
100
AcDbEntity
8
0
100
AcDbCircle
10
3.5599999999999827
20
-51.959999999999866
30
0
40
0.49999999999993056
210
4.5615950174746056e-32
220
1.2269654721939667e-32
230
1
100
AcDbArc
50
102.12235224488354
51
180
0
LINE
5
153
100
AcDbEntity
8
0
100
AcDbLine
10
3.4549999999991909
20
-51.471149307047746
30
-1.2083544447189634e-33
11
3.4549999999991519
21
-50.814999999999969
31
-5.5422449028471769e-46
0
ARC
5
154
100
AcDbEntity
8
0
100
AcDbCircle
10
3.8099999999991576
20
-50.814999999999984
30
0
40
0.35500000000000531
210
5.071496106533584e-46
220
-5.3369765731123499e-46
230
1
100
AcDbArc
50
0
51
180
0
LINE
5
155
100
AcDbEntity
8
0
100
AcDbLine
10
4.1649999999991625
20
-50.814999999999998
30
-1.8003811178195438e-46
11
4.1649999999991723
21
-51.47114930704744
31
1.2401628254827788e-46
0
ARC
5
156
100
AcDbEntity
8
0
100
AcDbCircle
10
4.0599999999998264
20
-51.959999999999937
30
0
40
0.49999999999999822
210
4.9303806576313238e-32
220
-0
230
1
100
AcDbArc
50
0
51
77.877647755287526
0
LINE
5
157
100
AcDbEntity
8
0
100
AcDbLine
10
4.5599999999998246
20
-51.959999999999937
30
-2.4651903288156531e-32
11
4.5599999999983103
21
-54.199999999999953
31
-3.1888435024344775e-44
0
LINE
5
158
100
AcDbEntity
8
0
100
AcDbLine
10
4.5599999999983103
20
-54.199999999999953
30
-3.1888435024344775e-44
11
5.6000000000000547
21
-54.200000000000003
31
-4.5009527945488596e-46
0
LINE
5
159
100
AcDbEntity
8
0
100
AcDbLine
10
5.6000000000000547
20
-54.200000000000003
30
-4.5009527945488596e-46
11
5.6000000000000565
21
-51.959999999999852
31
-2.3947971802426073e-47
0
ARC
5
160
100
AcDbEntity
8
0
100
AcDbCircle
10
6.0999999999999837
20
-51.959999999999866
30
0
40
0.49999999999992717
210
-2.250476397274775e-47
220
7.9370420830897793e-47
230
1
100
AcDbArc
50
90.000000000000199
51
180
0
LINE
5
161
100
AcDbEntity
8
0
100
AcDbLine
10
6.0999999999999819
20
-51.459999999999937
30
-3.968521041544314e-47
11
6.5999999999999517
21
-51.459999999999937
31
4.0765911875619896e-111
0
ARC
5
162
100
AcDbEntity
8
0
100
AcDbCircle
10
6.5999999999998256
20
-51.959999999999937
30
0
40
0.49999999999999822
210
4.9303806576313238e-32
220
-0
230
1
100
AcDbArc
50
0
51
89.999999999985548
0
LINE
5
163
100
AcDbEntity
8
0
100
AcDbLine
10
7.0999999999998238
20
-51.959999999999937
30
-2.4651903288156531e-32
11
7.0999999999983112
21
-54.199999999999953
31
-3.1888435024344775e-44
0
LINE
5
164
100
AcDbEntity
8
0
100
AcDbLine
10
7.0999999999983112
20
-54.199999999999953
30
-3.1888435024344775e-44
11
8.1400000000000556
21
-54.200000000000003
31
-4.5009527945488596e-46
0
LINE
5
165
100
AcDbEntity
8
0
100
AcDbLine
10
8.1400000000000556
20
-54.200000000000003
30
-4.5009527945488596e-46
11
8.1400000000000556
21
-51.959999999999852
31
-2.3947971802426073e-47
0
ARC
5
166
100
AcDbEntity
8
0
100
AcDbCircle
10
8.6399999999999828
20
-51.959999999999866
30
0
40
0.49999999999992717
210
-2.250476397274775e-47
220
7.9370420830897793e-47
230
1
100
AcDbArc
50
90
51
180
0
LINE
5
167
100
AcDbEntity
8
0
100
AcDbLine
10
8.6399999999999828
20
-51.459999999999937
30
-3.968521041544314e-47
11
9.1399999999999508
21
-51.459999999999937
31
4.0765911875619896e-111
0
ARC
5
168
100
AcDbEntity
8
0
100
AcDbCircle
10
9.1399999999998265
20
-51.959999999999937
30
0
40
0.49999999999999822
210
4.9303806576313238e-32
220
-0
230
1
100
AcDbArc
50
0
51
89.999999999985747
0
LINE
5
169
100
AcDbEntity
8
0
100
AcDbLine
10
9.6399999999998247
20
-51.959999999999937
30
-2.4651903288156531e-32
11
9.6399999999983113
21
-54.199999999999953
31
-3.1888435024344775e-44
0
LINE
5
170
100
AcDbEntity
8
0
100
AcDbLine
10
9.6399999999983113
20
-54.199999999999953
30
-3.1888435024344775e-44
11
10.680000000000053
21
-54.200000000000003
31
-4.5009527945488596e-46
0
LINE
5
171
100
AcDbEntity
8
0
100
AcDbLine
10
10.680000000000053
20
-54.200000000000003
30
-4.5009527945488596e-46
11
10.680000000000053
21
-51.959999999999852
31
0
0
ARC
5
172
100
AcDbEntity
8
0
100
AcDbCircle
10
11.179999999999984
20
-51.959999999999866
30
0
40
0.49999999999993117
210
-2.5884498452763867e-33
220
1.9158553408343592e-33
230
1
100
AcDbArc
50
102.12235224488384
51
180
0
LINE
5
173
100
AcDbEntity
8
0
100
AcDbLine
10
11.074999999999189
20
-51.471149307047746
30
-1.2083544447189666e-33
11
11.074999999999156
21
-50.814999999999969
31
-5.5422449028471769e-46
0
ARC
5
174
100
AcDbEntity
8
0
100
AcDbCircle
10
11.429999999999158
20
-50.814999999999984
30
0
40
0.35500000000000309
210
4.9303806576313741e-32
220
-3.0007724184464545e-45
230
1
100
AcDbArc
50
0
51
180
0
LINE
5
175
100
AcDbEntity
8
0
100
AcDbLine
10
11.784999999999162
20
-50.814999999999998
30
-1.750285133459153e-32
11
11.784999999999172
21
-51.47114930704744
31
1.2401628254827788e-46
0
ARC
5
176
100
AcDbEntity
8
0
100
AcDbCircle
10
11.679999999999826
20
-51.959999999999937
30
0
40
0.49999999999999822
210
4.9303806576313238e-32
220
-0
230
1
100
AcDbArc
50
0
51
77.877647755287427
0
LINE
5
177
100
AcDbEntity
8
0
100
AcDbLine
10
12.179999999999824
20
-51.959999999999937
30
-2.4651903288156531e-32
11
12.17999999999831
21
-54.199999999999953
31
-3.1888435024344775e-44
0
LINE
5
178
100
AcDbEntity
8
0
100
AcDbLine
10
12.17999999999831
20
-54.199999999999953
30
-3.1888435024344775e-44
11
13.220000000000056
21
-54.200000000000003
31
-4.5009527945488596e-46
0
LINE
5
179
100
AcDbEntity
8
0
100
AcDbLine
10
13.220000000000056
20
-54.200000000000003
30
-4.5009527945488596e-46
11
13.220000000000056
21
-51.959999999999852
31
3.4211388289180104e-48
0
ARC
5
180
100
AcDbEntity
8
0
100
AcDbCircle
10
13.719999999999983
20
-51.959999999999866
30
0
40
0.49999999999992717
210
0
220
-0
230
1
100
AcDbArc
50
90
51
180
0
LINE
5
181
100
AcDbEntity
8
0
100
AcDbLine
10
13.719999999999983
20
-51.459999999999937
30
0
11
14.219999999999951
21
-51.459999999999937
31
-1.8176400497880091e-144
0
ARC
5
182
100
AcDbEntity
8
0
100
AcDbCircle
10
14.219999999999827
20
-51.959999999999937
30
0
40
0.49999999999999822
210
4.9303806576313238e-32
220
-0
230
1
100
AcDbArc
50
0
51
89.999999999985747
0
LINE
5
183
100
AcDbEntity
8
0
100
AcDbLine
10
14.719999999999825
20
-51.959999999999937
30
-2.4651903288156531e-32
11
14.71999999999831
21
-54.199999999999953
31
-3.1888435024344775e-44
0
LINE
5
184
100
AcDbEntity
8
0
100
AcDbLine
10
14.71999999999831
20
-54.199999999999953
30
-3.1888435024344775e-44
11
15.760000000000057
21
-54.200000000000003
31
-4.5009527945488596e-46
0
LINE
5
185
100
AcDbEntity
8
0
100
AcDbLine
10
15.760000000000057
20
-54.200000000000003
30
-4.5009527945488596e-46
11
15.760000000000055
21
-51.959999999999852
31
-2.3947971802426073e-47
0
ARC
5
186
100
AcDbEntity
8
0
100
AcDbCircle
10
16.259999999999984
20
-51.959999999999866
30
0
40
0.49999999999993117
210
-2.5884498452763867e-33
220
1.9158553408343592e-33
230
1
100
AcDbArc
50
102.12235224488403
51
180
0
LINE
5
187
100
AcDbEntity
8
0
100
AcDbLine
10
16.154999999999188
20
-51.471149307047746
30
-1.2083544447189666e-33
11
16.154999999999156
21
-50.814999999999969
31
-5.5422449028471769e-46
0
ARC
5
188
100
AcDbEntity
8
0
100
AcDbCircle
10
16.50999999999916
20
-50.814999999999984
30
0
40
0.35500000000000309
210
4.9303806576313741e-32
220
-3.0007724184464545e-45
230
1
100
AcDbArc
50
0
51
180
0
LINE
5
189
100
AcDbEntity
8
0
100
AcDbLine
10
16.864999999999164
20
-50.814999999999998
30
-1.750285133459153e-32
11
16.864999999999174
21
-51.47114930704744
31
1.2401628254827788e-46
0
ARC
5
190
100
AcDbEntity
8
0
100
AcDbCircle
10
16.759999999999827
20
-51.959999999999937
30
0
40
0.49999999999999822
210
4.9303806576313238e-32
220
-0
230
1
100
AcDbArc
50
0
51
77.877647755287427
0
LINE
5
191
100
AcDbEntity
8
0
100
AcDbLine
10
17.259999999999824
20
-51.959999999999937
30
-2.4651903288156531e-32
11
17.259999999998492
21
-53.933333333333337
31
1.4112197669286793e-44
0
LINE
5
192
100
AcDbEntity
8
0
100
AcDbLine
10
17.259999999998492
20
-53.933333333333337
30
1.4112197669286793e-44
11
18.109999999999996
21
-53.933333333333337
31
-1.4500013137830362e-108
0
ELLIPSE
5
193
100
AcDbEntity
8
0
100
AcDbEllipse
10
18.109999999999996
20
-54.200000000000003
30
0
11
-0.80000000000000071
21
0
31
0.0
40
0.33333333333333309
41
3.666069877288384
42
4.7123889803846826
0
ARC
5
194
100
AcDbEntity
8
0
100
AcDbCircle
10
19.301708496607006
20
-53.200000000000088
30
0
40
0.99999999999990341
210
4.384235786841284e-33
220
-2.52611241354644e-33
230
1
100
AcDbArc
50
240.05028036704209
51
270.00000000000159
0
LINE
5
195
100
AcDbEntity
8
0
100
AcDbLine
10
19.301708496607034
20
-54.200000000000003
30
-1.0135244664170263e-32
11
27.825176065070075
21
-54.200000000000003
31
2.59490311278449e-97
0
ARC
5
196
100
AcDbEntity
8
0
100
AcDbCircle
10
27.825176065070067
20
-53.700000000000003
30
0
40
0.49999999999999822
210
4.9303806576313057e-32
220
8.7581154020301051e-46
230
1
100
AcDbArc
50
270.0000000000008
51
323.77845338016533
0
ARC
5
197
100
AcDbEntity
8
0
100
AcDbCircle
10
29.599999999999959
20
-55
30
0
40
1.6999999999999997
210
-1.4567033761183477e-32
220
9.7523862437365391e-33
230
1
100
AcDbArc
50
36.221546619835152
51
143.77845338016499
0
ARC
5
198
100
AcDbEntity
8
0
100
AcDbCircle
10
31.37482393492985
20
-53.700000000000003
30
0
40
0.50000000000000533
210
2.1258870237494448e-32
220
5.4361766835095534e-33
230
1
100
AcDbArc
50
216.22154661983413
51
270
0
LINE
5
199
100
AcDbEntity
8
0
100
AcDbLine
10
31.37482393492985
20
-54.200000000000003
30
-5.067622332085665e-33
11
37.599999999999966
21
-54.200000000000003
31
4.8084544338942246e-96
0
ARC
5
200
100
AcDbEntity
8
0
100
AcDbCircle
10
37.599999999999966
20
-52.200000000000003
30
0
40
1.9999999999999929
210
4.9303806576313238e-32
220
2.404227216947121e-96
230
1
100
AcDbArc
50
-90
51
0
0
LINE
5
201
100
AcDbEntity
8
0
100
AcDbLine
10
39.599999999999959
20
-52.200000000000003
30
-9.8607613152626125e-32
11
39.599999999999966
21
-2.7999999999999936
31
-2.1895288505075267e-46
0
ARC
5
202
100
AcDbEntity
8
0
100
AcDbCircle
10
37.599999999999973
20
-2.7999999999999989
30
0
40
1.9999999999999973
210
1.0947644252537602e-46
220
1.6695157485119922e-46
230
1
100
AcDbArc
50
0
51
90
0
LINE
5
203
100
AcDbEntity
8
0
100
AcDbLine
10
37.599999999999973
20
-0.80000000000000182
30
-6.1854190026837535e-46
11
31.37482393492985
21
-0.80000000000000016
31
1.6878572979558221e-47
0
ARC
5
204
100
AcDbEntity
8
0
100
AcDbCircle
10
31.374823934929847
20
-1.2999999999999976
30
0
40
0.49999999999999739
210
9.0019055890977386e-47
220
-3.3757145959117424e-47
230
1
100
AcDbArc
50
89.999999999999588
51
143.77845338016436
0
ARC
5
205
100
AcDbEntity
8
0
100
AcDbCircle
10
29.599999999999966
20
0
30
0
40
1.6999999999999995
210
-1.3684555315672036e-48
220
-1.0135244664171218e-32
230
1
100
AcDbArc
50
216.22154661983507
51
323.77845338016505
0
ARC
5
206
100
AcDbEntity
8
0
100
AcDbCircle
10
27.825176065070082
20
-1.2999999999999976
30
0
40
0.49999999999999778
210
3.5825903998677973e-32
220
-1.4451454224397864e-32
230
1
100
AcDbArc
50
36.221546619834918
51
90.00000000000081
0
LINE
5
207
100
AcDbEntity
8
0
100
AcDbLine
10
27.825176065070075
20
-0.7999999999999996
30
1.5011437786039526e-32
11
19.301708496607027
21
-0.80000000000000016
31
-4.2196432448895552e-48
0
ARC
5
208
100
AcDbEntity
8
0
100
AcDbCircle
10
19.301708496607034
20
-1.7999999999999998
30
0
40
0.99999999999999978
210
-4.9303806576313282e-32
220
-2.1473324180586333e-46
230
1
100
AcDbArc
50
90.000000000000398
51
119.94971963295754
0
ELLIPSE
5
209
100
AcDbEntity
8
0
100
AcDbEllipse
10
18.109999999999996
20
-0.80000000000000016
30
0
11
-0.80000000000000071
21
0
31
0.0
40
0.33333333333333309
41
1.5707963267949108
42
2.6171154298911694
0
LINE
5
210
100
AcDbEntity
8
0
100
AcDbLine
10
18.110000000000003
20
-1.0666666666666669
30
0
11
16.764999999999993
21
-1.0666666666666667
31
1.4065477482965186e-48
0
LINE
5
211
100
AcDbEntity
8
0
100
AcDbLine
10
16.764999999999993
20
-1.0666666666666667
30
1.4065477482965186e-48
11
16.764999999999993
21
-2.1199999999999992
31
5.4738221262688167e-47
0
ARC
5
212
100
AcDbEntity
8
0
100
AcDbCircle
10
16.509999999999994
20
-2.1199999999999992
30
0
40
0.25500000000000078
210
-2.5138120297638997e-64
220
1.3684555315672042e-48
230
1
100
AcDbArc
50
-180
51
0
0
LINE
5
213
100
AcDbEntity
8
0
100
AcDbLine
10
16.254999999999992
20
-2.1199999999999992
30
-6.4102206758979633e-65
11
16.254999999999992
21
-0.80000000000000016
31
0
0
LINE
5
214
100
AcDbEntity
8
0
100
AcDbLine
10
16.254999999999992
20
-0.80000000000000016
30
0
11
14.224999999999994
21
-0.80000000000000016
31
7.3796186021397951e-144
0
LINE
5
215
100
AcDbEntity
8
0
100
AcDbLine
10
14.224999999999994
20
-0.80000000000000016
30
7.3796186021397951e-144
11
14.224999999999994
21
-3.1199999999999992
31
0
0
ARC
5
216
100
AcDbEntity
8
0
100
AcDbCircle
10
13.969999999999994
20
-3.1199999999999992
30
0
40
0.25500000000000078
210
-2.5138120297638997e-64
220
1.3684555315672042e-48
230
1
100
AcDbArc
50
-180
51
0
0
LINE
5
217
100
AcDbEntity
8
0
100
AcDbLine
10
13.714999999999993
20
-3.1199999999999992
30
-6.4102206758979633e-65
11
13.714999999999993
21
-0.80000000000000016
31
0
0
LINE
5
218
100
AcDbEntity
8
0
100
AcDbLine
10
13.714999999999993
20
-0.80000000000000016
30
0
11
11.684999999999995
21
-0.80000000000000016
31
0
0
LINE
5
219
100
AcDbEntity
8
0
100
AcDbLine
10
11.684999999999995
20
-0.80000000000000016
30
0
11
11.684999999999995
21
-2.1199999999999992
31
-5.1317082433770156e-48
0
ARC
5
220
100
AcDbEntity
8
0
100
AcDbCircle
10
11.429999999999993
20
-2.1199999999999992
30
0
40
0.25500000000000078
210
-2.5138120297638997e-64
220
1.3684555315672042e-48
230
1
100
AcDbArc
50
-180
51
0
0
LINE
5
221
100
AcDbEntity
8
0
100
AcDbLine
10
11.174999999999994
20
-2.1199999999999992
30
-6.4102206758979633e-65
11
11.174999999999994
21
-0.80000000000000016
31
0
0
LINE
5
222
100
AcDbEntity
8
0
100
AcDbLine
10
11.174999999999994
20
-0.80000000000000016
30
0
11
9.144999999999996
21
-0.80000000000000016
31
7.3796186021397882e-144
0
LINE
5
223
100
AcDbEntity
8
0
100
AcDbLine
10
9.144999999999996
20
-0.80000000000000016
30
7.3796186021397882e-144
11
9.1449999999999942
21
-3.1199999999999992
31
-1.7105694144590052e-47
0
ARC
5
224
100
AcDbEntity
8
0
100
AcDbCircle
10
8.8899999999999935
20
-3.1199999999999992
30
0
40
0.25500000000000078
210
-2.5138120297638997e-64
220
1.3684555315672042e-48
230
1
100
AcDbArc
50
-180
51
0
0
LINE
5
225
100
AcDbEntity
8
0
100
AcDbLine
10
8.6349999999999927
20
-3.1199999999999992
30
-6.4102206758979633e-65
11
8.6349999999999927
21
-0.80000000000000016
31
0
0
LINE
5
226
100
AcDbEntity
8
0
100
AcDbLine
10
8.6349999999999927
20
-0.80000000000000016
30
0
11
6.6049999999999942
21
-0.80000000000000016
31
7.3796186021397951e-144
0
LINE
5
227
100
AcDbEntity
8
0
100
AcDbLine
10
6.6049999999999942
20
-0.80000000000000016
30
7.3796186021397951e-144
11
6.6049999999999942
21
-3.1199999999999992
31
0
0
ARC
5
228
100
AcDbEntity
8
0
100
AcDbCircle
10
6.3499999999999934
20
-3.1199999999999992
30
0
40
0.25500000000000078
210
-2.5138120297638997e-64
220
1.3684555315672042e-48
230
1
100
AcDbArc
50
-180
51
0
0
LINE
5
229
100
AcDbEntity
8
0
100
AcDbLine
10
6.0949999999999926
20
-3.1199999999999992
30
-6.4102206758979633e-65
11
6.0949999999999926
21
-0.80000000000000016
31
0
0
LINE
5
230
100
AcDbEntity
8
0
100
AcDbLine
10
6.0949999999999926
20
-0.80000000000000016
30
0
11
4.0649999999999942
21
-0.80000000000000016
31
7.3796186021397951e-144
0
LINE
5
231
100
AcDbEntity
8
0
100
AcDbLine
10
4.0649999999999942
20
-0.80000000000000016
30
7.3796186021397951e-144
11
4.0649999999999942
21
-2.1199999999999992
31
0
0
ARC
5
232
100
AcDbEntity
8
0
100
AcDbCircle
10
3.8099999999999934
20
-2.1199999999999992
30
0
40
0.25500000000000078
210
-2.5138120297638997e-64
220
1.3684555315672042e-48
230
1
100
AcDbArc
50
-180
51
0
0
LINE
5
233
100
AcDbEntity
8
0
100
AcDbLine
10
3.5549999999999926
20
-2.1199999999999992
30
-6.4102206758979633e-65
11
3.5549999999999926
21
-0.80000000000000016
31
0
0
LINE
5
234
100
AcDbEntity
8
0
100
AcDbLine
10
3.5549999999999926
20
-0.80000000000000016
30
0
11
1.5249999999999937
21
-0.80000000000000016
31
7.3796186021397996e-144
0
LINE
5
235
100
AcDbEntity
8
0
100
AcDbLine
10
1.5249999999999937
20
-0.80000000000000016
30
7.3796186021397996e-144
11
1.5249999999999941
21
-3.1199999999999992
31
1.0263416486754031e-47
0
ARC
5
236
100
AcDbEntity
8
0
100
AcDbCircle
10
1.2699999999999934
20
-3.1199999999999992
30
0
40
0.25500000000000078
210
-2.5138120297638997e-64
220
1.3684555315672042e-48
230
1
100
AcDbArc
50
-180
51
0
0
LINE
5
237
100
AcDbEntity
8
0
100
AcDbLine
10
1.0149999999999926
20
-3.1199999999999992
30
-6.4102206758979633e-65
11
1.0149999999999926
21
-0.80000000000000016
31
0
0
LINE
5
238
100
AcDbEntity
8
0
100
AcDbLine
10
1.0149999999999926
20
-0.80000000000000016
30
0
11
-1.0150000000000059
21
-0.80000000000000016
31
7.3796186021397951e-144
0
LINE
5
239
100
AcDbEntity
8
0
100
AcDbLine
10
-1.0150000000000059
20
-0.80000000000000016
30
7.3796186021397951e-144
11
-1.0150000000000059
21
-3.1199999999999992
31
0
0
ARC
5
240
100
AcDbEntity
8
0
100
AcDbCircle
10
-1.2700000000000067
20
-3.1199999999999992
30
0
40
0.25500000000000078
210
-2.5138120297638997e-64
220
1.3684555315672042e-48
230
1
100
AcDbArc
50
-180
51
0
0
LINE
5
241
100
AcDbEntity
8
0
100
AcDbLine
10
-1.5250000000000075
20
-3.1199999999999992
30
-6.4102206758979633e-65
11
-1.5250000000000075
21
-0.80000000000000016
31
0
0
LINE
5
242
100
AcDbEntity
8
0
100
AcDbLine
10
-1.5250000000000075
20
-0.80000000000000016
30
0
11
-3.5550000000000059
21
-0.80000000000000016
31
7.3796186021397939e-144
0
LINE
5
243
100
AcDbEntity
8
0
100
AcDbLine
10
-3.5550000000000059
20
-0.80000000000000016
30
7.3796186021397939e-144
11
-3.5550000000000059
21
-2.1199999999999992
31
0
0
ARC
5
244
100
AcDbEntity
8
0
100
AcDbCircle
10
-3.8100000000000067
20
-2.1199999999999992
30
0
40
0.25500000000000078
210
-2.5138120297638997e-64
220
1.3684555315672042e-48
230
1
100
AcDbArc
50
-180
51
0
0
LINE
5
245
100
AcDbEntity
8
0
100
AcDbLine
10
-4.0650000000000075
20
-2.1199999999999992
30
-6.4102206758979633e-65
11
-4.0650000000000075
21
-0.80000000000000016
31
0
0
LINE
5
246
100
AcDbEntity
8
0
100
AcDbLine
10
-4.0650000000000075
20
-0.80000000000000016
30
0
11
-6.095000000000006
21
-0.80000000000000016
31
7.3796186021397951e-144
0
LINE
5
247
100
AcDbEntity
8
0
100
AcDbLine
10
-6.095000000000006
20
-0.80000000000000016
30
7.3796186021397951e-144
11
-6.095000000000006
21
-3.1199999999999992
31
0
0
ARC
5
248
100
AcDbEntity
8
0
100
AcDbCircle
10
-6.3500000000000068
20
-3.1199999999999992
30
0
40
0.25500000000000078
210
-2.5138120297638997e-64
220
1.3684555315672042e-48
230
1
100
AcDbArc
50
-180
51
0
0
LINE
5
249
100
AcDbEntity
8
0
100
AcDbLine
10
-6.6050000000000075
20
-3.1199999999999992
30
-6.4102206758979633e-65
11
-6.6050000000000075
21
-0.80000000000000016
31
0
0
LINE
5
250
100
AcDbEntity
8
0
100
AcDbLine
10
-6.6050000000000075
20
-0.80000000000000016
30
0
11
-8.6350000000000051
21
-0.80000000000000016
31
7.3796186021397951e-144
0
LINE
5
251
100
AcDbEntity
8
0
100
AcDbLine
10
-8.6350000000000051
20
-0.80000000000000016
30
7.3796186021397951e-144
11
-8.6350000000000051
21
-3.1199999999999992
31
0
0
ARC
5
252
100
AcDbEntity
8
0
100
AcDbCircle
10
-8.8900000000000077
20
-3.1199999999999992
30
0
40
0.25500000000000078
210
-2.5138120297638997e-64
220
1.3684555315672042e-48
230
1
100
AcDbArc
50
-180
51
0
0
LINE
5
253
100
AcDbEntity
8
0
100
AcDbLine
10
-9.1450000000000067
20
-3.1199999999999992
30
-6.4102206758979633e-65
11
-9.1450000000000067
21
-0.80000000000000016
31
0
0
LINE
5
254
100
AcDbEntity
8
0
100
AcDbLine
10
-9.1450000000000067
20
-0.80000000000000016
30
0
11
-11.175000000000006
21
-0.80000000000000016
31
7.3796186021397996e-144
0
LINE
5
255
100
AcDbEntity
8
0
100
AcDbLine
10
-11.175000000000006
20
-0.80000000000000016
30
7.3796186021397996e-144
11
-11.175000000000006
21
-2.1199999999999992
31
0
0
ARC
5
256
100
AcDbEntity
8
0
100
AcDbCircle
10
-11.430000000000007
20
-2.1199999999999992
30
0
40
0.25500000000000078
210
-2.5138120297638997e-64
220
1.3684555315672042e-48
230
1
100
AcDbArc
50
-180
51
0
0
LINE
5
257
100
AcDbEntity
8
0
100
AcDbLine
10
-11.685000000000008
20
-2.1199999999999992
30
-6.4102206758979633e-65
11
-11.685000000000008
21
-0.80000000000000016
31
0
0
LINE
5
258
100
AcDbEntity
8
0
100
AcDbLine
10
-11.685000000000008
20
-0.80000000000000016
30
0
11
-13.715000000000007
21
-0.80000000000000016
31
0
0
LINE
5
259
100
AcDbEntity
8
0
100
AcDbLine
10
-13.715000000000007
20
-0.80000000000000016
30
0
11
-13.715000000000007
21
-3.1199999999999992
31
-1.7105694144590052e-47
0
ARC
5
260
100
AcDbEntity
8
0
100
AcDbCircle
10
-13.970000000000006
20
-3.1199999999999992
30
0
40
0.25500000000000078
210
-2.5138120297638997e-64
220
1.3684555315672042e-48
230
1
100
AcDbArc
50
-180
51
0
0
LINE
5
261
100
AcDbEntity
8
0
100
AcDbLine
10
-14.225000000000009
20
-3.1199999999999992
30
-6.4102206758979633e-65
11
-14.225000000000009
21
-0.80000000000000016
31
0
0
LINE
5
262
100
AcDbEntity
8
0
100
AcDbLine
10
-14.225000000000009
20
-0.80000000000000016
30
0
11
-16.255000000000006
21
-0.80000000000000016
31
7.3796186021397951e-144
0
LINE
5
263
100
AcDbEntity
8
0
100
AcDbLine
10
-16.255000000000006
20
-0.80000000000000016
30
7.3796186021397951e-144
11
-16.255000000000006
21
-2.1199999999999992
31
0
0
ARC
5
264
100
AcDbEntity
8
0
100
AcDbCircle
10
-16.510000000000005
20
-2.1199999999999992
30
0
40
0.25500000000000078
210
-2.5138120297638997e-64
220
1.3684555315672042e-48
230
1
100
AcDbArc
50
-180
51
0
0
LINE
5
265
100
AcDbEntity
8
0
100
AcDbLine
10
-16.765000000000008
20
-2.1199999999999992
30
-6.4102206758979633e-65
11
-16.765000000000008
21
-1.0666666666666667
31
0
0
LINE
5
266
100
AcDbEntity
8
0
100
AcDbLine
10
-16.765000000000008
20
-1.0666666666666667
30
0
11
-18.109999999999982
21
-1.0666666666666673
31
-7.0327387414825931e-48
0
ELLIPSE
5
267
100
AcDbEntity
8
0
100
AcDbEllipse
10
-18.109999999999982
20
-0.80000000000000071
30
0
11
0.80000000000000071
21
0
31
0.0
40
0.33333333333333309
41
3.6660698772884084
42
4.7123889803846897
0
ARC
5
268
100
AcDbEntity
8
0
100
AcDbCircle
10
-19.30170849660702
20
-1.8000000000000049
30
0
40
1.0000000000000058
210
4.3842357868412347e-33
220
-2.5261124135463524e-33
230
1
100
AcDbArc
50
60.050280367042838
51
90
0
LINE
5
269
100
AcDbEntity
8
0
100
AcDbLine
10
-19.30170849660702
20
-0.79999999999999971
30
-1.1224738349943159e-32
11
-27.825176065070075
21
-0.80000000000000016
31
-5.6261909931860745e-48
0
ARC
5
270
100
AcDbEntity
8
0
100
AcDbCircle
10
-27.825176065070082
20
-1.2999999999999972
30
0
40
0.49999999999999711
210
9.0019055890977814e-47
220
1.1252381986371415e-47
230
1
100
AcDbArc
50
89.99999999999919
51
143.77845338016448
0
ARC
5
271
100
AcDbEntity
8
0
100
AcDbCircle
10
-29.599999999999966
20
1.0947644252537633e-46
30
0
40
1.6999999999999995
210
-1.3684555315672036e-48
220
-1.0135244664171218e-32
230
1
100
AcDbArc
50
216.22154661983515
51
323.7784533801651
0
ARC
5
272
100
AcDbEntity
8
0
100
AcDbCircle
10
-31.374823934929847
20
-1.2999999999999989
30
0
40
0.49999999999999867
210
2.1258870237494562e-32
220
5.4361766835099914e-33
230
1
100
AcDbArc
50
36.221546619835031
51
90
0
LINE
5
273
100
AcDbEntity
8
0
100
AcDbLine
10
-31.374823934929847
20
-0.80000000000000049
30
-9.4994114290977705e-33
11
-37.599999999999966
21
-0.80000000000000016
31
-7.422496985893519e-97
0
ARC
5
274
100
AcDbEntity
8
0
100
AcDbCircle
10
-37.599999999999966
20
-2.8000000000000025
30
0
40
2.0000000000000022
210
4.9303806576313249e-32
220
3.7112484929467558e-97
230
1
100
AcDbArc
50
90
51
180
0
LINE
5
275
100
AcDbEntity
8
0
100
AcDbLine
10
-39.599999999999966
20
-2.8000000000000025
30
9.8607613152626607e-32
11
-39.599999999999973
21
-52.199999999999996
31
0
0
ARC
5
276
100
AcDbEntity
8
0
100
AcDbCircle
10
-37.599999999999966
20
-52.199999999999989
30
0
40
2.0000000000000107
210
3.6462980143717433e-62
220
-8.210733189403225e-48
230
1
100
AcDbArc
50
180
51
270
0
LINE
5
277
100
AcDbEntity
8
0
100
AcDbLine
10
-37.599999999999966
20
-54.200000000000003
30
-1.6421466378807136e-47
11
-31.374823934929847
21
-54.200000000000003
31
1.686865318991423e-111
0
ARC
5
278
100
AcDbEntity
8
0
100
AcDbCircle
10
-31.374823934929843
20
-53.700000000000017
30
0
40
0.49999999999998046
210
9.0019055890980711e-47
220
-7.9952982804151616e-61
230
1
100
AcDbArc
50
269.9999999999996
51
323.77845338016618
0
ARC
5
279
100
AcDbEntity
8
0
100
AcDbCircle
10
-29.599999999999969
20
-55
30
0
40
1.6999999999999997
210
-1.4567033761183477e-32
220
9.7523862437365391e-33
230
1
100
AcDbArc
50
36.221546619835152
51
143.77845338016476
0
ARC
5
280
100
AcDbEntity
8
0
100
AcDbCircle
10
-27.825176065070075
20
-53.70000000000001
30
0
40
0.50000000000000022
210
2.1258870237494749e-32
220
5.4361766835093058e-33
230
1
100
AcDbArc
50
216.22154661983325
51
270.0000000000004
0
LINE
5
281
100
AcDbEntity
8
0
100
AcDbLine
10
-27.825176065070071
20
-54.20000000000001
30
-5.0676223320856116e-33
11
-19.30170849660702
21
-54.200000000000003
31
9.0019055890977191e-47
0
ARC
5
282
100
AcDbEntity
8
0
100
AcDbCircle
10
-19.301708496606988
20
-53.200000000000102
30
0
40
0.99999999999989875
210
-4.930380657631292e-32
220
1.6226892512464004e-45
230
1
100
AcDbArc
50
269.99999999999818
51
299.94971963295757
0
ELLIPSE
5
283
100
AcDbEntity
8
0
100
AcDbEllipse
10
-18.109999999999982
20
-54.200000000000003
30
0
11
0.80000000000000071
21
0
31
0.0
40
0.33333333333333309
41
1.5707963267948966
42
2.6171154298912267
0
LINE
5
284
100
AcDbEntity
8
0
100
AcDbLine
10
-18.109999999999982
20
-53.933333333333337
30
0
11
-17.259999999999948
21
-53.933333333333337
31
-3.089988084639946e-144
0
LINE
5
285
100
AcDbEntity
8
0
100
AcDbLine
10
-17.259999999999948
20
-53.933333333333337
30
-3.089988084639946e-144
11
-17.259999999999948
21
-51.959999999999852
31
0
0
ARC
5
286
100
AcDbEntity
8
0
100
AcDbCircle
10
-16.760000000000016
20
-51.959999999999866
30
0
40
0.49999999999993117
210
-2.5884498452763867e-33
220
1.9158553408343592e-33
230
1
100
AcDbArc
50
102.12235224488403
51
180
0
LINE
5
287
100
AcDbEntity
8
0
100
AcDbLine
10
-16.865000000000812
20
-51.471149307047746
30
-1.2083544447189666e-33
11
-16.865000000000844
21
-50.814999999999969
31
-5.5422449028471769e-46
0
ARC
5
288
100
AcDbEntity
8
0
100
AcDbCircle
10
-16.510000000000844
20
-50.814999999999984
30
0
40
0.35500000000000309
210
-2.6705281232018298e-59
220
-5.3369765731120932e-46
230
1
100
AcDbArc
50
0
51
180
0
ENDSEC
0
SECTION
2
OBJECTS
0
DICTIONARY
5
C
100
AcDbDictionary
3
ACAD_GROUP
350
D
3
ACAD_MLINESTYLE
350
17
0
DICTIONARY
5
D
100
AcDbDictionary
0
DICTIONARY
5
1A
330
C
100
AcDbDictionary
0
DICTIONARY
5
17
100
AcDbDictionary
0
ENDSEC
0
EOF
