0
SECTION
2
HEADER
9
$INSUNITS
70
4
9
$ACADVER
1
AC1014
9
$HANDSEED
5
FFFF
0
ENDSEC
0
SECTION
2
TABLES
0
TABLE
2
VPORT
5
8
100
AcDbSymbolTable
0
ENDTAB
0
TABLE
2
LTYPE
5
5
100
AcDbSymbolTable
0
LTYPE
5
14
100
AcDbSymbolTableRecord
100
AcDbLinetypeTableRecord
2
BYBLOCK
70
0
0
LTYPE
5
15
100
AcDbSymbolTableRecord
100
AcDbLinetypeTableRecord
2
BYLAYER
70
0
0
ENDTAB
0
TABLE
2
LAYER
5
2
100
AcDbSymbolTable
70
2
0
LAYER
5
50
100
AcDbSymbolTableRecord
100
AcDbLayerTableRecord
2
0
70
0
6
CONTINUOUS
0
ENDTAB
0
TABLE
2
STYLE
5
3
100
AcDbSymbolTable
70
1
0
STYLE
5
11
100
AcDbSymbolTableRecord
100
AcDbTextStyleTableRecord
2
STANDARD
70
0
0
ENDTAB
0
TABLE
2
VIEW
5
6
100
AcDbSymbolTable
70
0
0
ENDTAB
0
TABLE
2
UCS
5
7
100
AcDbSymbolTable
70
0
0
ENDTAB
0
TABLE
2
APPID
5
9
100
AcDbSymbolTable
70
2
0
APPID
5
12
100
AcDbSymbolTableRecord
100
AcDbRegAppTableRecord
2
ACAD
70
0
0
ENDTAB
0
TABLE
2
DIMSTYLE
5
A
100
AcDbSymbolTable
70
1
0
ENDTAB
0
TABLE
2
BLOCK_RECORD
5
1
100
AcDbSymbolTable
70
1
0
BLOCK_RECORD
5
1F
100
AcDbSymbolTableRecord
100
AcDbBlockTableRecord
2
*MODEL_SPACE
0
BLOCK_RECORD
5
1B
100
AcDbSymbolTableRecord
100
AcDbBlockTableRecord
2
*PAPER_SPACE
0
ENDTAB
0
ENDSEC
0
SECTION
2
BLOCKS
0
BLOCK
5
20
100
AcDbEntity
100
AcDbBlockBegin
2
*MODEL_SPACE
0
ENDBLK
5
21
100
AcDbEntity
100
AcDbBlockEnd
0
BLOCK
5
1C
100
AcDbEntity
100
AcDbBlockBegin
2
*PAPER_SPACE
0
ENDBLK
5
1D
100
AcDbEntity
100
AcDbBlockEnd
0
ENDSEC
0
SECTION
2
ENTITIES
0
CIRCLE
5
100
100
AcDbEntity
8
0
100
AcDbCircle
10
-9.9999999999999911
20
-38.000000000000007
30
0
40
0.80000000000000071
210
0
220
0
230
1
0
CIRCLE
5
101
100
AcDbEntity
8
0
100
AcDbCircle
10
10.000000000000009
20
38
30
0
40
0.80000000000000071
210
0
220
0
230
1
0
CIRCLE
5
102
100
AcDbEntity
8
0
100
AcDbCircle
10
27.380000000000273
20
-33.629999999999988
30
0
40
0.82549999999999901
210
0
220
0
230
1
0
CIRCLE
5
103
100
AcDbEntity
8
0
100
AcDbCircle
10
-27.380000000000273
20
33.629999999999988
30
0
40
0.82549999999999901
210
0
220
0
230
1
0
CIRCLE
5
104
100
AcDbEntity
8
0
100
AcDbCircle
10
29.920000000000265
20
-33.629999999999988
30
0
40
0.82549999999999901
210
0
220
0
230
1
0
CIRCLE
5
105
100
AcDbEntity
8
0
100
AcDbCircle
10
-29.920000000000261
20
-33.629999999999988
30
0
40
0.82549999999999901
210
0
220
0
230
1
0
CIRCLE
5
106
100
AcDbEntity
8
0
100
AcDbCircle
10
-27.380000000000265
20
-33.629999999999988
30
0
40
0.82549999999999901
210
0
220
0
230
1
0
CIRCLE
5
107
100
AcDbEntity
8
0
100
AcDbCircle
10
10.000000000000009
20
-38
30
0
40
0.5500000000000016
210
0
220
0
230
1
0
CIRCLE
5
108
100
AcDbEntity
8
0
100
AcDbCircle
10
-9.9999999999999911
20
38.000000000000014
30
0
40
0.54999999999999716
210
0
220
0
230
1
0
CIRCLE
5
109
100
AcDbEntity
8
0
100
AcDbCircle
10
29.920000000000265
20
33.629999999999988
30
0
40
0.82549999999999901
210
0
220
0
230
1
0
CIRCLE
5
110
100
AcDbEntity
8
0
100
AcDbCircle
10
-29.920000000000265
20
33.629999999999988
30
0
40
0.82549999999999901
210
0
220
0
230
1
0
CIRCLE
5
111
100
AcDbEntity
8
0
100
AcDbCircle
10
27.380000000000273
20
33.629999999999988
30
0
40
0.82549999999999901
210
0
220
0
230
1
0
CIRCLE
5
112
100
AcDbEntity
8
0
100
AcDbCircle
10
-20.000000000000032
20
36.949999999999996
30
0
40
1.599999999999997
210
0
220
0
230
1
0
CIRCLE
5
113
100
AcDbEntity
8
0
100
AcDbCircle
10
20.000000000000043
20
36.949999999999989
30
0
40
1.599999999999997
210
0
220
0
230
1
0
CIRCLE
5
114
100
AcDbEntity
8
0
100
AcDbCircle
10
-20.000000000000032
20
-36.949999999999996
30
0
40
1.599999999999997
210
0
220
0
230
1
0
CIRCLE
5
115
100
AcDbEntity
8
0
100
AcDbCircle
10
20.00000000000005
20
-36.949999999999989
30
0
40
1.599999999999997
210
0
220
0
230
1
0
LWPOLYLINE
5
116
100
AcDbEntity
8
0
100
AcDbPolyline
90
432
70
1
43
0.0
10
-20.60303288168214
20
-45.750000000000021
10
-19.950000000000006
20
-45.750000000000021
42
0.41421356237306645
10
-19.699999999999992
20
-45.500000000000014
10
-19.700000000000003
20
-44.880000000000024
42
-0.99999999999999989
10
-18.399999999999995
20
-44.880000000000003
10
-18.400000000000006
20
-45.500000000000007
42
0.41421356237308465
10
-18.150000000000006
20
-45.750000000000014
10
-17.410000000000004
20
-45.750000000000014
42
0.41421356237307427
10
-17.16
20
-45.500000000000007
10
-17.160000000000004
20
-44.880000000000024
42
-0.99999999999999989
10
-15.859999999999996
20
-44.880000000000003
10
-15.860000000000005
20
-45.500000000000007
42
0.41421356237308982
10
-15.610000000000001
20
-45.750000000000014
10
-14.870000000000003
20
-45.750000000000014
42
0.41421356237307427
10
-14.619999999999999
20
-45.500000000000007
10
-14.620000000000005
20
-44.880000000000024
42
-0.99999999999999989
10
-13.319999999999997
20
-44.880000000000003
10
-13.320000000000006
20
-45.500000000000007
42
0.41421356237308465
10
-13.070000000000006
20
-45.750000000000014
10
-12.330000000000004
20
-45.750000000000014
42
0.41421356237310542
10
-12.080000000000018
20
-45.500000000000007
10
-12.080000000000004
20
-44.880000000000024
42
-0.99999999999999989
10
-10.779999999999996
20
-44.880000000000003
10
-10.780000000000005
20
-45.500000000000007
42
0.41421356237311063
10
-10.530000000000001
20
-45.750000000000014
10
-9.7900000000000027
20
-45.750000000000014
42
0.41421356237310414
10
-9.5400000000000098
20
-45.500000000000007
10
-9.5400000000000063
20
-44.88000000000001
42
-0.99999999999999989
10
-8.2399999999999984
20
-44.88000000000001
10
-8.240000000000002
20
-45.500000000000007
42
0.41421356237309509
10
-7.9900000000000029
20
-45.750000000000014
10
-7.2500000000000044
20
-45.750000000000014
42
0.41421356237310542
10
-7.0000000000000098
20
-45.500000000000007
10
-7.0000000000000062
20
-44.88000000000001
42
-0.99999999999999989
10
-5.6999999999999984
20
-44.88000000000001
10
-5.7000000000000028
20
-45.500000000000007
42
0.41421356237309509
10
-5.4500000000000028
20
-45.750000000000014
10
-4.7100000000000044
20
-45.750000000000014
42
0.41421356237310542
10
-4.4600000000000097
20
-45.500000000000007
10
-4.4600000000000053
20
-44.88000000000001
42
-0.99999999999999989
10
-3.1599999999999979
20
-44.88000000000001
10
-3.160000000000001
20
-45.500000000000007
42
0.41421356237310414
10
-2.9100000000000028
20
-45.750000000000021
10
-2.1700000000000044
20
-45.750000000000014
42
0.41421356237310575
10
-1.9200000000000093
20
-45.500000000000007
10
-1.9200000000000061
20
-44.88000000000001
42
-0.99999999999999989
10
-0.61999999999999833
20
-44.88000000000001
10
-0.62000000000000122
20
-45.500000000000007
42
0.41421356237310486
10
-0.37000000000000233
20
-45.750000000000021
10
0.37000000000000055
20
-45.750000000000014
42
0.41421356237310536
10
0.61999999999999511
20
-45.500000000000007
10
0.61999999999999833
20
-44.88000000000001
42
-0.99999999999999989
10
1.9200000000000061
20
-44.88000000000001
10
1.9200000000000037
20
-45.500000000000007
42
0.41421356237310608
10
2.1700000000000044
20
-45.750000000000021
10
2.9100000000000001
20
-45.750000000000014
42
0.41421356237310542
10
3.1599999999999948
20
-45.500000000000007
10
3.1599999999999984
20
-44.88000000000001
42
-0.99999999999999989
10
4.4600000000000062
20
-44.88000000000001
10
4.4600000000000035
20
-45.500000000000007
42
0.41421356237310675
10
4.7100000000000044
20
-45.750000000000021
10
5.4500000000000028
20
-45.750000000000014
42
0.41421356237309509
10
5.7000000000000064
20
-45.500000000000007
10
5.6999999999999984
20
-44.88000000000001
42
-0.99999999999999989
10
7.0000000000000062
20
-44.88000000000001
10
7.0000000000000027
20
-45.500000000000007
42
0.41421356237310542
10
7.2500000000000018
20
-45.750000000000014
10
7.9900000000000029
20
-45.750000000000014
42
0.41421356237309509
10
8.2400000000000055
20
-45.500000000000007
10
8.2399999999999984
20
-44.88000000000001
42
-0.99999999999999989
10
9.5400000000000063
20
-44.88000000000001
10
9.5400000000000027
20
-45.500000000000007
42
0.41421356237310542
10
9.7900000000000027
20
-45.750000000000014
10
10.530000000000001
20
-45.750000000000014
42
0.41421356237311063
10
10.780000000000001
20
-45.500000000000007
10
10.779999999999998
20
-44.88000000000001
42
-0.99999999999999989
10
12.080000000000005
20
-44.88000000000001
10
12.080000000000002
20
-45.500000000000007
42
0.41421356237310542
10
12.330000000000004
20
-45.750000000000021
10
13.070000000000004
20
-45.750000000000014
42
0.41421356237308726
10
13.319999999999991
20
-45.500000000000007
10
13.319999999999999
20
-44.880000000000031
42
-0.99999999999999989
10
14.620000000000006
20
-44.88000000000001
10
14.620000000000001
20
-45.500000000000007
42
0.41421356237307427
10
14.870000000000003
20
-45.750000000000014
10
15.610000000000003
20
-45.750000000000014
42
0.41421356237308726
10
15.860000000000001
20
-45.500000000000007
10
15.859999999999999
20
-44.880000000000031
42
-0.99999999999999989
10
17.160000000000007
20
-44.88000000000001
10
17.160000000000004
20
-45.500000000000007
42
0.41421356237307427
10
17.410000000000004
20
-45.750000000000014
10
18.150000000000006
20
-45.750000000000014
42
0.41421356237308726
10
18.400000000000002
20
-45.500000000000007
10
18.399999999999999
20
-44.880000000000031
42
-0.99999999999999989
10
19.700000000000006
20
-44.88000000000001
10
19.700000000000003
20
-45.500000000000007
42
0.41421356237307427
10
19.950000000000003
20
-45.750000000000014
10
20.603032881682147
20
-45.750000000000014
42
0.41421356237309243
10
22.103032881682147
20
-44.25
10
22.103032881682143
20
-42.55000000000004
42
-0.41421356237309437
10
24.10303288168214
20
-40.55000000000004
10
33.707359312880712
20
-40.55000000000004
42
0.19891236737966078
10
35.545836943965732
20
-39.788477631085058
10
39.788477631085016
20
-35.545836943965782
42
0.19891236737965459
10
40.54999999999999
20
-33.707359312880754
10
40.549999999999997
20
-24.103032881682136
42
-0.41421356237309509
10
42.549999999999997
20
-22.10303288168214
10
44.250000000000014
20
-22.103032881682129
42
0.41421356237309331
10
45.750000000000021
20
-20.603032881682136
10
45.750000000000021
20
-19.949999999999996
42
0.41421356237306645
10
45.500000000000014
20
-19.699999999999982
10
44.880000000000024
20
-19.699999999999996
42
-0.99999999999999989
10
44.880000000000003
20
-18.399999999999988
10
45.500000000000007
20
-18.399999999999995
42
0.41421356237308465
10
45.750000000000014
20
-18.149999999999999
10
45.750000000000014
20
-17.409999999999993
42
0.41421356237307427
10
45.500000000000007
20
-17.159999999999989
10
44.880000000000024
20
-17.159999999999997
42
-0.99999999999999989
10
44.880000000000003
20
-15.859999999999987
10
45.500000000000007
20
-15.859999999999996
42
0.41421356237308982
10
45.750000000000014
20
-15.609999999999992
10
45.750000000000014
20
-14.869999999999994
42
0.41421356237307427
10
45.500000000000007
20
-14.61999999999999
10
44.880000000000024
20
-14.619999999999996
42
-0.99999999999999989
10
44.880000000000003
20
-13.319999999999988
10
45.500000000000007
20
-13.319999999999997
42
0.41421356237308465
10
45.750000000000014
20
-13.069999999999997
10
45.750000000000014
20
-12.329999999999995
42
0.41421356237310542
10
45.500000000000007
20
-12.080000000000009
10
44.880000000000024
20
-12.079999999999995
42
-0.99999999999999989
10
44.880000000000003
20
-10.779999999999987
10
45.500000000000007
20
-10.779999999999996
42
0.41421356237311063
10
45.750000000000014
20
-10.529999999999992
10
45.750000000000014
20
-9.7899999999999938
42
0.41421356237310414
10
45.500000000000007
20
-9.5400000000000009
10
44.88000000000001
20
-9.5399999999999991
42
-0.99999999999999989
10
44.88000000000001
20
-8.2399999999999913
10
45.500000000000007
20
-8.2399999999999949
42
0.41421356237309509
10
45.750000000000014
20
-7.989999999999994
10
45.750000000000014
20
-7.2499999999999956
42
0.41421356237310542
10
45.500000000000007
20
-7.0000000000000009
10
44.88000000000001
20
-6.9999999999999982
42
-0.99999999999999989
10
44.88000000000001
20
-5.6999999999999904
10
45.500000000000007
20
-5.699999999999994
42
0.41421356237309509
10
45.750000000000014
20
-5.449999999999994
10
45.750000000000014
20
-4.7099999999999955
42
0.4142135623731048
10
45.500000000000007
20
-4.4600000000000017
10
44.88000000000001
20
-4.4599999999999973
42
-0.99999999999999989
10
44.88000000000001
20
-3.1599999999999895
10
45.500000000000007
20
-3.159999999999993
42
0.4142135623731048
10
45.750000000000014
20
-2.9099999999999944
10
45.750000000000014
20
-2.1699999999999959
42
0.41421356237310575
10
45.500000000000007
20
-1.9200000000000008
10
44.88000000000001
20
-1.9199999999999977
42
-0.99999999999999989
10
44.88000000000001
20
-0.61999999999999
10
45.500000000000007
20
-0.61999999999999289
42
0.41421356237310503
10
45.750000000000021
20
-0.36999999999999394
10
45.750000000000014
20
0.37000000000000893
42
0.41421356237310564
10
45.500000000000007
20
0.62000000000000377
10
44.88000000000001
20
0.62000000000000666
42
-0.99999999999999989
10
44.88000000000001
20
1.9200000000000146
10
45.500000000000007
20
1.9200000000000119
42
0.41421356237310608
10
45.750000000000021
20
2.1700000000000124
10
45.750000000000014
20
2.910000000000009
42
0.41421356237310414
10
45.500000000000007
20
3.1600000000000028
10
44.88000000000001
20
3.1600000000000068
42
-0.99999999999999989
10
44.88000000000001
20
4.4600000000000142
10
45.500000000000007
20
4.4600000000000115
42
0.4142135623730937
10
45.750000000000014
20
4.7100000000000124
10
45.750000000000014
20
5.4500000000000117
42
0.41421356237309509
10
45.500000000000007
20
5.7000000000000153
10
44.88000000000001
20
5.7000000000000064
42
-0.99999999999999989
10
44.88000000000001
20
7.0000000000000142
10
45.500000000000007
20
7.0000000000000115
42
0.41421356237310542
10
45.750000000000014
20
7.2500000000000107
10
45.750000000000014
20
7.9900000000000118
42
0.41421356237309509
10
45.500000000000007
20
8.2400000000000144
10
44.88000000000001
20
8.2400000000000055
42
-0.99999999999999989
10
44.88000000000001
20
9.5400000000000134
10
45.500000000000007
20
9.5400000000000116
42
0.41421356237310542
10
45.750000000000014
20
9.7900000000000116
10
45.750000000000014
20
10.53000000000001
42
0.41421356237311063
10
45.500000000000007
20
10.78000000000001
10
44.88000000000001
20
10.780000000000008
42
-0.99999999999999989
10
44.88000000000001
20
12.080000000000016
10
45.500000000000007
20
12.080000000000011
42
0.41421356237310542
10
45.750000000000021
20
12.330000000000013
10
45.750000000000014
20
13.070000000000013
42
0.41421356237308726
10
45.500000000000007
20
13.32
10
44.880000000000031
20
13.320000000000007
42
-0.99999999999999989
10
44.88000000000001
20
14.620000000000015
10
45.500000000000007
20
14.620000000000012
42
0.41421356237307427
10
45.750000000000014
20
14.870000000000012
10
45.750000000000014
20
15.610000000000014
42
0.41421356237308726
10
45.500000000000007
20
15.86000000000001
10
44.880000000000031
20
15.860000000000007
42
-0.99999999999999989
10
44.88000000000001
20
17.160000000000014
10
45.500000000000007
20
17.160000000000011
42
0.41421356237307427
10
45.750000000000014
20
17.410000000000011
10
45.750000000000014
20
18.150000000000013
42
0.41421356237308726
10
45.500000000000007
20
18.400000000000009
10
44.880000000000031
20
18.400000000000006
42
-0.99999999999999989
10
44.88000000000001
20
19.700000000000017
10
45.500000000000007
20
19.70000000000001
42
0.41421356237307427
10
45.750000000000014
20
19.950000000000014
10
45.750000000000014
20
20.603032881682157
42
0.41421356237309243
10
44.25
20
22.103032881682157
10
42.549999999999983
20
22.103032881682154
42
-0.41421356237309509
10
40.549999999999983
20
24.103032881682154
10
40.549999999999983
20
33.707359312880705
42
0.19891236737965468
10
39.788477631085001
20
35.545836943965725
10
35.545836943965725
20
39.788477631085016
42
0.19891236737965459
10
33.707359312880698
20
40.54999999999999
10
24.103032881682136
20
40.549999999999997
42
-0.41421356237309509
10
22.103032881682132
20
42.549999999999997
10
22.103032881682132
20
44.250000000000014
42
0.41421356237309331
10
20.60303288168214
20
45.750000000000021
10
19.949999999999996
20
45.750000000000014
42
0.41421356237308465
10
19.699999999999999
20
45.500000000000007
10
19.699999999999999
20
44.880000000000024
42
-0.99999999999999989
10
18.399999999999991
20
44.880000000000003
10
18.399999999999999
20
45.500000000000007
42
0.41421356237307427
10
18.149999999999999
20
45.750000000000014
10
17.409999999999997
20
45.750000000000014
42
0.41421356237308726
10
17.16
20
45.500000000000007
10
17.16
20
44.880000000000024
42
-0.99999999999999989
10
15.859999999999992
20
44.880000000000003
10
15.859999999999999
20
45.500000000000007
42
0.41421356237307944
10
15.609999999999996
20
45.750000000000014
10
14.869999999999997
20
45.750000000000014
42
0.41421356237308726
10
14.619999999999999
20
45.500000000000007
10
14.619999999999999
20
44.880000000000024
42
-0.99999999999999989
10
13.319999999999991
20
44.880000000000003
10
13.319999999999999
20
45.500000000000007
42
0.41421356237307427
10
13.07
20
45.750000000000014
10
12.329999999999997
20
45.750000000000014
42
0.41421356237310802
10
12.080000000000009
20
45.500000000000007
10
12.08
20
44.880000000000024
42
-0.99999999999999989
10
10.779999999999992
20
44.880000000000003
10
10.779999999999998
20
45.500000000000007
42
0.41421356237311063
10
10.529999999999994
20
45.750000000000014
10
9.7899999999999974
20
45.750000000000014
42
0.41421356237310281
10
9.5400000000000045
20
45.500000000000007
10
9.5400000000000009
20
44.88000000000001
42
-0.99999999999999989
10
8.2399999999999931
20
44.88000000000001
10
8.2399999999999967
20
45.500000000000007
42
0.41421356237309243
10
7.9899999999999967
20
45.750000000000014
10
7.2499999999999982
20
45.750000000000014
42
0.41421356237310414
10
7.0000000000000053
20
45.500000000000007
10
7.0000000000000009
20
44.88000000000001
42
-0.99999999999999989
10
5.6999999999999931
20
44.88000000000001
10
5.6999999999999975
20
45.500000000000007
42
0.41421356237309243
10
5.4499999999999975
20
45.750000000000014
10
4.7099999999999991
20
45.750000000000014
42
0.41421356237310542
10
4.4600000000000044
20
45.500000000000007
10
4.46
20
44.88000000000001
42
-0.99999999999999989
10
3.1599999999999921
20
44.88000000000001
10
3.1599999999999957
20
45.500000000000007
42
0.41421356237310414
10
2.909999999999997
20
45.750000000000021
10
2.1699999999999986
20
45.750000000000014
42
0.41421356237310575
10
1.9200000000000037
20
45.500000000000007
10
1.9200000000000006
20
44.88000000000001
42
-0.99999999999999989
10
0.61999999999999278
20
44.88000000000001
10
0.61999999999999567
20
45.500000000000007
42
0.41421356237310503
10
0.36999999999999672
20
45.750000000000021
10
-0.37000000000000616
20
45.750000000000014
42
0.41421356237310564
10
-0.62000000000000099
20
45.500000000000007
10
-0.62000000000000388
20
44.88000000000001
42
-0.99999999999999989
10
-1.9200000000000117
20
44.88000000000001
10
-1.9200000000000093
20
45.500000000000007
42
0.41421356237310608
10
-2.1700000000000097
20
45.750000000000021
10
-2.9100000000000059
20
45.750000000000014
42
0.41421356237310542
10
-3.1600000000000006
20
45.500000000000007
10
-3.1600000000000037
20
44.88000000000001
42
-0.99999999999999989
10
-4.4600000000000115
20
44.88000000000001
10
-4.4600000000000088
20
45.500000000000007
42
0.41421356237310675
10
-4.7100000000000097
20
45.750000000000021
10
-5.4500000000000082
20
45.750000000000014
42
0.41421356237309243
10
-5.7000000000000099
20
45.500000000000007
10
-5.7000000000000037
20
44.88000000000001
42
-0.99999999999999989
10
-7.0000000000000115
20
44.88000000000001
10
-7.0000000000000089
20
45.500000000000007
42
0.41421356237310414
10
-7.2500000000000071
20
45.750000000000021
10
-7.9900000000000082
20
45.750000000000014
42
0.41421356237309243
10
-8.2400000000000091
20
45.500000000000007
10
-8.2400000000000038
20
44.88000000000001
42
-0.99999999999999989
10
-9.5400000000000116
20
44.88000000000001
10
-9.540000000000008
20
45.500000000000007
42
0.41421356237310414
10
-9.790000000000008
20
45.750000000000021
10
-10.53000000000001
20
45.750000000000014
42
0.41421356237310542
10
-10.780000000000005
20
45.500000000000007
10
-10.780000000000003
20
44.88000000000001
42
-0.99999999999999989
10
-12.080000000000011
20
44.88000000000001
10
-12.080000000000009
20
45.500000000000007
42
0.41421356237310802
10
-12.330000000000009
20
45.750000000000014
10
-13.070000000000011
20
45.750000000000014
42
0.41421356237307427
10
-13.320000000000006
20
45.500000000000007
10
-13.320000000000004
20
44.880000000000031
42
-0.99999999999999989
10
-14.620000000000012
20
44.88000000000001
10
-14.620000000000008
20
45.500000000000007
42
0.41421356237308726
10
-14.87000000000001
20
45.750000000000014
10
-15.61000000000001
20
45.750000000000014
42
0.41421356237307427
10
-15.860000000000014
20
45.500000000000007
10
-15.860000000000003
20
44.880000000000031
42
-0.99999999999999989
10
-17.160000000000011
20
44.88000000000001
10
-17.160000000000007
20
45.500000000000007
42
0.41421356237308726
10
-17.410000000000011
20
45.750000000000014
10
-18.150000000000009
20
45.750000000000014
42
0.41421356237307427
10
-18.400000000000013
20
45.500000000000007
10
-18.400000000000002
20
44.880000000000031
42
-0.99999999999999989
10
-19.70000000000001
20
44.88000000000001
10
-19.70000000000001
20
45.500000000000007
42
0.41421356237308726
10
-19.95000000000001
20
45.750000000000014
10
-20.603032881682147
20
45.750000000000014
42
0.41421356237309587
10
-22.103032881682157
20
44.249999999999986
10
-22.103032881682147
20
42.54999999999999
42
-0.41421356237309437
10
-24.103032881682147
20
40.549999999999983
10
-33.707359312880733
20
40.549999999999969
42
0.1989123673796557
10
-35.545836943965739
20
39.788477631084994
10
-39.788477631085037
20
35.545836943965725
42
0.19891236737965459
10
-40.550000000000004
20
33.707359312880698
10
-40.550000000000011
20
24.103032881682136
42
-0.41421356237309509
10
-42.550000000000018
20
22.10303288168214
10
-44.250000000000014
20
22.103032881682132
42
0.41421356237309331
10
-45.750000000000021
20
20.60303288168214
10
-45.750000000000021
20
19.950000000000003
42
0.41421356237308982
10
-45.500000000000007
20
19.699999999999996
10
-44.880000000000024
20
19.700000000000003
42
-0.99999999999999989
10
-44.880000000000003
20
18.399999999999995
10
-45.500000000000007
20
18.400000000000002
42
0.41421356237307427
10
-45.750000000000014
20
18.150000000000006
10
-45.750000000000014
20
17.41
42
0.41421356237308726
10
-45.500000000000007
20
17.160000000000004
10
-44.880000000000024
20
17.160000000000004
42
-0.99999999999999989
10
-44.880000000000003
20
15.859999999999994
10
-45.500000000000007
20
15.860000000000003
42
0.41421356237307944
10
-45.750000000000014
20
15.609999999999999
10
-45.750000000000014
20
14.870000000000001
42
0.41421356237308726
10
-45.500000000000007
20
14.620000000000005
10
-44.880000000000024
20
14.620000000000001
42
-0.99999999999999989
10
-44.880000000000003
20
13.319999999999993
10
-45.500000000000007
20
13.320000000000004
42
0.41421356237307427
10
-45.750000000000014
20
13.070000000000004
10
-45.750000000000014
20
12.330000000000002
42
0.41421356237310802
10
-45.500000000000007
20
12.080000000000013
10
-44.880000000000024
20
12.080000000000002
42
-0.99999999999999989
10
-44.880000000000003
20
10.779999999999994
10
-45.500000000000007
20
10.780000000000003
42
0.41421356237311063
10
-45.750000000000014
20
10.529999999999999
10
-45.750000000000014
20
9.7899999999999991
42
0.41421356237310281
10
-45.500000000000007
20
9.540000000000008
10
-44.88000000000001
20
9.5400000000000045
42
-0.99999999999999989
10
-44.88000000000001
20
8.2399999999999967
10
-45.500000000000007
20
8.2400000000000002
42
0.41421356237309243
10
-45.750000000000014
20
7.9899999999999993
10
-45.750000000000014
20
7.2500000000000009
42
0.41421356237310414
10
-45.500000000000007
20
7.0000000000000071
10
-44.88000000000001
20
7.0000000000000036
42
-0.99999999999999989
10
-44.88000000000001
20
5.6999999999999957
10
-45.500000000000007
20
5.6999999999999993
42
0.41421356237309243
10
-45.750000000000014
20
5.4499999999999993
10
-45.750000000000014
20
4.7100000000000017
42
0.4142135623731048
10
-45.500000000000007
20
4.4600000000000071
10
-44.88000000000001
20
4.4600000000000026
42
-0.99999999999999989
10
-44.88000000000001
20
3.1599999999999948
10
-45.500000000000007
20
3.1599999999999984
42
0.4142135623731048
10
-45.750000000000014
20
2.9099999999999997
10
-45.750000000000014
20
2.1700000000000013
42
0.41421356237310575
10
-45.500000000000007
20
1.9200000000000064
10
-44.88000000000001
20
1.9200000000000035
42
-0.99999999999999989
10
-44.88000000000001
20
0.61999999999999555
10
-45.500000000000007
20
0.61999999999999844
42
0.41421356237310486
10
-45.750000000000021
20
0.36999999999999955
10
-45.750000000000014
20
-0.37000000000000333
42
0.41421356237310536
10
-45.500000000000007
20
-0.61999999999999789
10
-44.88000000000001
20
-0.62000000000000111
42
-0.99999999999999989
10
-44.88000000000001
20
-1.9200000000000088
10
-45.500000000000007
20
-1.9200000000000064
42
0.41421356237310608
10
-45.750000000000021
20
-2.170000000000007
10
-45.750000000000014
20
-2.9100000000000037
42
0.41421356237310414
10
-45.500000000000007
20
-3.1599999999999975
10
-44.88000000000001
20
-3.160000000000001
42
-0.99999999999999989
10
-44.88000000000001
20
-4.4600000000000088
10
-45.500000000000007
20
-4.4600000000000062
42
0.4142135623730937
10
-45.750000000000014
20
-4.7100000000000071
10
-45.750000000000014
20
-5.4500000000000064
42
0.41421356237309243
10
-45.500000000000007
20
-5.7000000000000073
10
-44.88000000000001
20
-5.7000000000000011
42
-0.99999999999999989
10
-44.88000000000001
20
-7.0000000000000089
10
-45.500000000000007
20
-7.0000000000000062
42
0.41421356237310414
10
-45.750000000000021
20
-7.2500000000000053
10
-45.750000000000014
20
-7.9900000000000055
42
0.41421356237309243
10
-45.500000000000007
20
-8.2400000000000073
10
-44.88000000000001
20
-8.2400000000000002
42
-0.99999999999999989
10
-44.88000000000001
20
-9.540000000000008
10
-45.500000000000007
20
-9.5400000000000063
42
0.41421356237310414
10
-45.750000000000021
20
-9.7900000000000063
10
-45.750000000000014
20
-10.530000000000006
42
0.41421356237310542
10
-45.500000000000007
20
-10.780000000000001
10
-44.88000000000001
20
-10.780000000000001
42
-0.99999999999999989
10
-44.88000000000001
20
-12.080000000000009
10
-45.500000000000007
20
-12.080000000000004
42
0.41421356237310802
10
-45.750000000000014
20
-12.330000000000005
10
-45.750000000000014
20
-13.070000000000006
42
0.41421356237307427
10
-45.500000000000007
20
-13.32
10
-44.880000000000031
20
-13.32
42
-0.99999999999999989
10
-44.88000000000001
20
-14.620000000000008
10
-45.500000000000007
20
-14.620000000000005
42
0.41421356237308726
10
-45.750000000000014
20
-14.870000000000005
10
-45.750000000000014
20
-15.610000000000007
42
0.41421356237307427
10
-45.500000000000007
20
-15.86000000000001
10
-44.880000000000031
20
-15.860000000000001
42
-0.99999999999999989
10
-44.88000000000001
20
-17.160000000000007
10
-45.500000000000007
20
-17.160000000000004
42
0.41421356237308726
10
-45.750000000000014
20
-17.410000000000004
10
-45.750000000000014
20
-18.150000000000006
42
0.41421356237307427
10
-45.500000000000007
20
-18.400000000000009
10
-44.880000000000031
20
-18.400000000000002
42
-0.99999999999999989
10
-44.88000000000001
20
-19.70000000000001
10
-45.500000000000007
20
-19.700000000000003
42
0.41421356237308726
10
-45.750000000000014
20
-19.950000000000006
10
-45.750000000000014
20
-20.603032881682147
42
0.41421356237309587
10
-44.249999999999986
20
-22.103032881682157
10
-42.550000000000011
20
-22.103032881682147
42
-0.41421356237309437
10
-40.549999999999997
20
-24.103032881682147
10
-40.549999999999997
20
-33.70735931288074
42
0.19891236737965468
10
-39.788477631085016
20
-35.54583694396576
10
-35.545836943965725
20
-39.788477631085058
42
0.19891236737965229
10
-33.707359312880705
20
-40.550000000000033
10
-24.10303288168214
20
-40.550000000000033
42
-0.41421356237309509
10
-22.10303288168214
20
-42.550000000000033
10
-22.10303288168214
20
-44.250000000000014
42
0.4142135623730942
0
ENDSEC
0
SECTION
2
OBJECTS
0
DICTIONARY
5
C
100
AcDbDictionary
3
ACAD_GROUP
350
D
3
ACAD_MLINESTYLE
350
17
0
DICTIONARY
5
D
100
AcDbDictionary
0
DICTIONARY
5
1A
330
C
100
AcDbDictionary
0
DICTIONARY
5
17
100
AcDbDictionary
0
ENDSEC
0
EOF
